<svg width="419" height="660" viewBox="0 0 419 660" fill="none" xmlns="http://www.w3.org/2000/svg">
<g filter="url(#filter0_d_2908_6)">
<path fill-rule="evenodd" clip-rule="evenodd" d="M88.776 55.5695H280.009C298.35 55.5695 313.217 69.8048 313.217 87.365V522.635C313.217 540.195 298.35 554.431 280.009 554.431H88.776C70.4357 554.431 55.5679 540.195 55.5679 522.635V87.365C55.5679 69.8048 70.4357 55.5695 88.776 55.5695Z" fill="#213648"/>
</g>
<path opacity="0.595562" fill-rule="evenodd" clip-rule="evenodd" d="M280.749 55H87.9226C78.92 55.549 70.6174 59.6569 63.0146 67.3239C67.9041 63.0559 76.6249 57.3446 88.1546 57.3446C88.1546 57.3446 272.83 57.3446 280.517 57.3446C292.046 57.3446 300.767 63.0559 305.656 67.3239C298.054 59.6569 289.751 55.549 280.749 55Z" fill="url(#paint0_linear_2908_6)" fill-opacity="0.65"/>
<path opacity="0.75" fill-rule="evenodd" clip-rule="evenodd" d="M307.999 517.671V89.9818C307.999 78.5065 303.782 74.2644 301.266 71.5405C298.75 68.8166 298.643 67.4272 302.258 69.4839C305.873 71.5405 313.103 77.5306 313.103 89.9818V517.671C313.103 530.122 305.873 536.112 302.258 538.169C298.643 540.225 298.75 538.836 301.266 536.112C303.782 533.388 307.999 529.146 307.999 517.671Z" fill="url(#paint1_linear_2908_6)"/>
<path opacity="0.75" fill-rule="evenodd" clip-rule="evenodd" d="M60.672 517.671V89.9818C60.672 78.5065 64.8894 74.2644 67.4053 71.5405C69.9212 68.8166 70.0283 67.4272 66.4134 69.4839C62.7984 71.5405 55.568 77.5306 55.568 89.9818V517.671C55.568 530.122 62.7984 536.112 66.4134 538.169C70.0283 540.225 69.9212 538.836 67.4053 536.112C64.8894 533.388 60.672 529.146 60.672 517.671Z" fill="url(#paint2_linear_2908_6)"/>
<path fill-rule="evenodd" clip-rule="evenodd" d="M53 158.556C53 157.452 53.8954 156.556 55 156.556H55.9645C57.0691 156.556 57.9645 157.452 57.9645 158.556V218.907C57.9645 220.012 57.0691 220.907 55.9645 220.907H55C53.8954 220.907 53 220.012 53 218.907V158.556Z" fill="#2E423C"/>
<path fill-rule="evenodd" clip-rule="evenodd" d="M310.535 211.043C310.535 209.939 311.431 209.043 312.535 209.043H313.5C314.605 209.043 315.5 209.939 315.5 211.043V253.993C315.5 255.098 314.605 255.993 313.5 255.993H312.535C311.431 255.993 310.535 255.098 310.535 253.993V211.043Z" fill="#2E423C"/>
<g clip-path="url(#clip0_2908_6)">
<path fill-rule="evenodd" clip-rule="evenodd" d="M161.676 67.4445L87.2698 67.4445C76.1653 67.4445 68.0742 75.0078 68.0742 84.8859V507.276C68.0742 520.155 80.5765 531.567 94.7134 531.567H274.046C287.664 531.567 300.686 520.067 300.686 507.276V86.0276C300.686 74.188 291.896 67.5149 281.49 67.4445L205.904 67.4445C205.618 67.4914 200.425 69.6262 198.231 75.0078C196.036 80.3893 191.621 84.6793 186.787 84.6793H181.172C178.874 84.6793 172.824 82.4496 169.76 75.0078C166.697 67.5659 161.963 67.4914 161.676 67.4445Z" fill="white"/>
<mask id="mask0_2908_6" style="mask-type:luminance" maskUnits="userSpaceOnUse" x="68" y="67" width="233" height="465">
<path fill-rule="evenodd" clip-rule="evenodd" d="M161.676 67.4445L87.2698 67.4445C76.1653 67.4445 68.0742 75.0078 68.0742 84.8859V507.276C68.0742 520.155 80.5765 531.567 94.7134 531.567H274.046C287.664 531.567 300.686 520.067 300.686 507.276V86.0276C300.686 74.188 291.896 67.5149 281.49 67.4445L205.904 67.4445C205.618 67.4914 200.425 69.6262 198.231 75.0078C196.036 80.3893 191.621 84.6793 186.787 84.6793H181.172C178.874 84.6793 172.824 82.4496 169.76 75.0078C166.697 67.5659 161.963 67.4914 161.676 67.4445Z" fill="white"/>
</mask>
<g mask="url(#mask0_2908_6)">
<rect x="68" y="67.4445" width="233" height="465" fill="url(#paint3_linear_2908_6)"/>
<path d="M147.504 196V178.672H143.376V176.032C144.699 176.032 145.765 175.909 146.576 175.664C147.397 175.408 148.011 175.045 148.416 174.576C148.821 174.096 149.061 173.525 149.136 172.864H152.24V196H147.504ZM157.496 196V193.696V192.512C157.496 191.339 157.714 190.325 158.152 189.472C158.589 188.608 159.165 187.861 159.88 187.232C160.605 186.592 161.394 186.032 162.248 185.552C163.112 185.072 163.976 184.619 164.84 184.192C165.704 183.765 166.493 183.339 167.208 182.912C167.933 182.475 168.514 181.989 168.952 181.456C169.389 180.923 169.608 180.293 169.608 179.568C169.608 178.64 169.282 177.883 168.632 177.296C167.992 176.709 167.112 176.416 165.992 176.416C164.829 176.416 163.842 176.752 163.032 177.424C162.221 178.096 161.72 179.109 161.528 180.464H157.064C157.085 178.992 157.426 177.659 158.088 176.464C158.76 175.259 159.762 174.304 161.096 173.6C162.429 172.896 164.104 172.544 166.12 172.544C167.848 172.544 169.336 172.837 170.584 173.424C171.842 174.011 172.813 174.827 173.496 175.872C174.178 176.917 174.52 178.139 174.52 179.536C174.52 180.699 174.306 181.701 173.88 182.544C173.453 183.387 172.888 184.107 172.184 184.704C171.48 185.301 170.706 185.824 169.864 186.272C169.021 186.72 168.178 187.136 167.336 187.52C166.504 187.904 165.736 188.299 165.032 188.704C164.328 189.099 163.762 189.547 163.336 190.048C162.909 190.549 162.696 191.152 162.696 191.856V192.064H174.488V196H157.496ZM182.704 179.856V184.864H177.584V179.856H182.704ZM182.704 190.912V195.904H177.584V190.912H182.704ZM196.451 172.864H201.043V186.96H204.611V190.88H201.043V196H196.547L196.563 190.88H185.907V187.04L196.451 172.864ZM190.227 186.96H196.563V178.48L190.227 186.96ZM215.435 196.352C213.995 196.352 212.651 196.075 211.403 195.52C210.155 194.965 209.137 194.187 208.347 193.184C207.558 192.171 207.115 190.987 207.019 189.632H211.467C211.659 190.528 212.086 191.259 212.747 191.824C213.409 192.379 214.241 192.656 215.243 192.656C216.353 192.656 217.323 192.395 218.155 191.872C218.998 191.349 219.627 190.517 220.043 189.376C220.47 188.235 220.619 186.741 220.491 184.896C220.193 185.461 219.777 185.957 219.243 186.384C218.721 186.8 218.107 187.125 217.403 187.36C216.699 187.584 215.915 187.696 215.051 187.696C213.483 187.696 212.091 187.403 210.875 186.816C209.67 186.219 208.721 185.376 208.027 184.288C207.345 183.189 207.003 181.888 207.003 180.384C207.003 178.869 207.366 177.52 208.091 176.336C208.817 175.152 209.83 174.224 211.131 173.552C212.433 172.88 213.958 172.544 215.707 172.544C217.67 172.544 219.361 173.013 220.779 173.952C222.209 174.88 223.302 176.203 224.059 177.92C224.827 179.627 225.211 181.637 225.211 183.952C225.211 186.715 224.817 189.019 224.027 190.864C223.249 192.699 222.129 194.075 220.667 194.992C219.206 195.899 217.462 196.352 215.435 196.352ZM215.851 183.984C216.502 183.984 217.131 183.84 217.739 183.552C218.358 183.253 218.865 182.88 219.259 182.432C219.654 181.984 219.851 181.52 219.851 181.04C219.862 180.005 219.697 179.12 219.355 178.384C219.025 177.637 218.555 177.067 217.947 176.672C217.35 176.277 216.651 176.08 215.851 176.08C215.115 176.08 214.459 176.251 213.883 176.592C213.307 176.933 212.854 177.413 212.523 178.032C212.193 178.651 212.027 179.365 212.027 180.176C212.027 181.381 212.379 182.32 213.083 182.992C213.787 183.653 214.71 183.984 215.851 183.984Z" fill="white"/>
</g>
</g>
<g clip-path="url(#clip1_2908_6)">
<g filter="url(#filter1_d_2908_6)">
<rect x="75" y="222" width="218" height="87" rx="5" fill="#FBFCFE"/>
</g>
<g clip-path="url(#clip2_2908_6)">
<path d="M91.81 248V240.77H94.47C94.9967 240.77 95.4683 240.862 95.885 241.045C96.3017 241.225 96.63 241.492 96.87 241.845C97.1133 242.198 97.235 242.63 97.235 243.14C97.235 243.62 97.1283 244.03 96.915 244.37C96.7017 244.71 96.4017 244.97 96.015 245.15C95.6317 245.33 95.18 245.42 94.66 245.42H93.28V248H91.81ZM93.265 244.29H94.62C94.9867 244.29 95.2867 244.173 95.52 243.94C95.7533 243.703 95.87 243.412 95.87 243.065C95.87 242.705 95.7467 242.42 95.5 242.21C95.2533 241.997 94.9533 241.89 94.6 241.89H93.265V244.29ZM99.5117 248.1C99.1817 248.1 98.8851 248.038 98.6217 247.915C98.3584 247.792 98.1501 247.613 97.9967 247.38C97.8434 247.143 97.7667 246.857 97.7667 246.52C97.7667 245.953 97.9784 245.523 98.4017 245.23C98.8251 244.933 99.4934 244.78 100.407 244.77L101.052 244.76V244.45C101.052 244.213 100.982 244.032 100.842 243.905C100.705 243.775 100.492 243.712 100.202 243.715C99.9884 243.718 99.7851 243.768 99.5917 243.865C99.4017 243.962 99.2717 244.13 99.2017 244.37H97.9867C98.0067 243.997 98.1151 243.69 98.3117 243.45C98.5084 243.207 98.7751 243.027 99.1117 242.91C99.4517 242.79 99.8367 242.73 100.267 242.73C100.797 242.73 101.222 242.797 101.542 242.93C101.862 243.06 102.093 243.248 102.237 243.495C102.38 243.738 102.452 244.028 102.452 244.365V248H101.232L101.112 247.11C100.935 247.483 100.713 247.742 100.447 247.885C100.183 248.028 99.8717 248.1 99.5117 248.1ZM100.002 247.14C100.135 247.14 100.263 247.117 100.387 247.07C100.513 247.02 100.625 246.955 100.722 246.875C100.822 246.792 100.902 246.698 100.962 246.595C101.022 246.492 101.052 246.385 101.052 246.275V245.51L100.527 245.52C100.283 245.523 100.057 245.553 99.8467 245.61C99.6367 245.663 99.4667 245.752 99.3367 245.875C99.2101 245.998 99.1467 246.165 99.1467 246.375C99.1467 246.615 99.2301 246.803 99.3967 246.94C99.5634 247.073 99.7651 247.14 100.002 247.14ZM104.364 249.65C104.01 249.65 103.76 249.62 103.614 249.56C103.47 249.503 103.399 249.475 103.399 249.475V248.545L103.909 248.565C104.132 248.578 104.312 248.567 104.449 248.53C104.585 248.497 104.689 248.452 104.759 248.395C104.832 248.338 104.884 248.278 104.914 248.215C104.944 248.155 104.965 248.107 104.979 248.07L105.074 247.785L103.064 242.83H104.509L105.749 246.2L107.004 242.83H108.429L106.334 248.03C106.154 248.47 105.964 248.807 105.764 249.04C105.564 249.273 105.347 249.433 105.114 249.52C104.884 249.607 104.634 249.65 104.364 249.65ZM108.228 248L110.818 240.77H112.358L114.943 248H113.488L112.898 246.325H110.298L109.693 248H108.228ZM110.623 245.05H112.548L111.593 242.18L110.623 245.05ZM116.029 248V240.77H118.689C119.215 240.77 119.687 240.862 120.104 241.045C120.52 241.225 120.849 241.492 121.089 241.845C121.332 242.198 121.454 242.63 121.454 243.14C121.454 243.62 121.347 244.03 121.134 244.37C120.92 244.71 120.62 244.97 120.234 245.15C119.85 245.33 119.399 245.42 118.879 245.42H117.499V248H116.029ZM117.484 244.29H118.839C119.205 244.29 119.505 244.173 119.739 243.94C119.972 243.703 120.089 243.412 120.089 243.065C120.089 242.705 119.965 242.42 119.719 242.21C119.472 241.997 119.172 241.89 118.819 241.89H117.484V244.29ZM122.552 240.77H124.007V248H122.552V240.77Z" fill="#BA4270"/>
<path opacity="0.5" d="M238.609 246.295C238.609 246.678 238.566 247.005 238.479 247.275C238.392 247.545 238.237 247.75 238.014 247.89C237.794 248.03 237.481 248.1 237.074 248.1C236.817 248.1 236.576 248.07 236.349 248.01C236.126 247.95 235.977 247.905 235.904 247.875L235.969 246.99C236.072 247.027 236.191 247.073 236.324 247.13C236.461 247.183 236.629 247.21 236.829 247.21C237.156 247.21 237.379 247.12 237.499 246.94C237.622 246.76 237.684 246.457 237.684 246.03V240.77H238.609V246.295ZM242.041 248.1C241.771 248.097 241.516 248.058 241.276 247.985C241.039 247.908 240.829 247.797 240.646 247.65C240.462 247.503 240.317 247.322 240.211 247.105C240.107 246.885 240.056 246.63 240.056 246.34V242.83H240.981V246.245C240.981 246.582 241.084 246.855 241.291 247.065C241.501 247.275 241.816 247.38 242.236 247.38C242.616 247.38 242.921 247.282 243.151 247.085C243.384 246.885 243.501 246.588 243.501 246.195V242.83H244.421V248H243.686L243.591 247.01C243.527 247.27 243.419 247.48 243.266 247.64C243.116 247.8 242.934 247.918 242.721 247.995C242.511 248.068 242.284 248.103 242.041 248.1ZM247.698 248.1C247.338 248.1 247.003 248.045 246.693 247.935C246.387 247.822 246.132 247.647 245.928 247.41C245.725 247.17 245.597 246.865 245.543 246.495H246.383C246.43 246.698 246.513 246.868 246.633 247.005C246.757 247.138 246.91 247.24 247.093 247.31C247.277 247.377 247.477 247.41 247.693 247.41C248.04 247.41 248.32 247.345 248.533 247.215C248.747 247.085 248.853 246.885 248.853 246.615C248.853 246.425 248.797 246.273 248.683 246.16C248.573 246.043 248.402 245.958 248.168 245.905L247.098 245.64C246.682 245.54 246.348 245.383 246.098 245.17C245.848 244.957 245.723 244.658 245.723 244.275C245.72 243.972 245.792 243.705 245.938 243.475C246.085 243.245 246.305 243.063 246.598 242.93C246.892 242.797 247.257 242.73 247.693 242.73C248.253 242.73 248.705 242.857 249.048 243.11C249.395 243.36 249.575 243.728 249.588 244.215H248.773C248.74 243.968 248.628 243.773 248.438 243.63C248.252 243.483 248 243.41 247.683 243.41C247.353 243.41 247.085 243.477 246.878 243.61C246.672 243.74 246.568 243.943 246.568 244.22C246.568 244.403 246.642 244.548 246.788 244.655C246.935 244.758 247.152 244.845 247.438 244.915L248.473 245.175C248.713 245.238 248.91 245.322 249.063 245.425C249.22 245.528 249.343 245.643 249.433 245.77C249.527 245.897 249.592 246.03 249.628 246.17C249.668 246.307 249.688 246.438 249.688 246.565C249.688 246.882 249.608 247.155 249.448 247.385C249.292 247.612 249.065 247.788 248.768 247.915C248.475 248.038 248.118 248.1 247.698 248.1ZM253.5 243.505H252.335V246.72C252.335 246.903 252.353 247.038 252.39 247.125C252.43 247.208 252.495 247.262 252.585 247.285C252.678 247.308 252.805 247.32 252.965 247.32H253.53V247.94C253.466 247.963 253.37 247.983 253.24 248C253.113 248.017 252.955 248.025 252.765 248.025C252.408 248.025 252.131 247.977 251.935 247.88C251.738 247.783 251.6 247.64 251.52 247.45C251.443 247.26 251.405 247.027 251.405 246.75V243.505H250.565V242.83H251.43L251.655 241.325H252.335V242.825H253.5V243.505ZM262.028 240.77H262.953V248H262.128L258.248 242.3V248H257.323V240.77H258.208L262.028 246.39V240.77ZM266.659 248.1C266.182 248.1 265.765 247.998 265.409 247.795C265.052 247.588 264.775 247.287 264.579 246.89C264.382 246.493 264.284 246.008 264.284 245.435C264.284 244.895 264.375 244.422 264.559 244.015C264.742 243.608 265.01 243.293 265.364 243.07C265.72 242.843 266.152 242.73 266.659 242.73C267.135 242.73 267.549 242.835 267.899 243.045C268.252 243.252 268.525 243.557 268.719 243.96C268.912 244.363 269.009 244.855 269.009 245.435C269.009 245.962 268.919 246.425 268.739 246.825C268.562 247.225 268.299 247.538 267.949 247.765C267.602 247.988 267.172 248.1 266.659 248.1ZM266.659 247.37C266.969 247.37 267.23 247.292 267.444 247.135C267.657 246.978 267.819 246.753 267.929 246.46C268.039 246.167 268.094 245.818 268.094 245.415C268.094 245.045 268.045 244.713 267.949 244.42C267.852 244.123 267.697 243.888 267.484 243.715C267.274 243.542 266.999 243.455 266.659 243.455C266.345 243.455 266.08 243.533 265.864 243.69C265.647 243.843 265.482 244.067 265.369 244.36C265.259 244.653 265.204 245.005 265.204 245.415C265.204 245.778 265.254 246.108 265.354 246.405C265.454 246.702 265.61 246.937 265.824 247.11C266.037 247.283 266.315 247.37 266.659 247.37ZM276.833 242.83L275.268 248H274.358L273.178 244.185L272.058 248H271.153L269.558 242.83H270.413L271.598 246.805H271.678L272.843 242.83H273.543L274.753 246.795H274.833L275.968 242.83H276.833Z" fill="#36536B"/>
</g>
<path d="M91.23 257.62V256.77H96.7V257.62H94.495V264H93.565V257.62H91.23ZM97.7025 264V256.57H98.6025V259.59C98.6892 259.447 98.8058 259.313 98.9525 259.19C99.0992 259.063 99.2775 258.962 99.4875 258.885C99.6975 258.805 99.9408 258.765 100.218 258.765C100.554 258.765 100.859 258.828 101.133 258.955C101.406 259.078 101.623 259.255 101.783 259.485C101.943 259.715 102.023 259.988 102.023 260.305V264H101.098V260.49C101.098 260.18 100.991 259.942 100.778 259.775C100.568 259.605 100.293 259.52 99.9525 259.52C99.7225 259.52 99.5058 259.558 99.3025 259.635C99.0992 259.708 98.9342 259.822 98.8075 259.975C98.6842 260.125 98.6225 260.317 98.6225 260.55V264H97.7025ZM104.124 261.63C104.124 261.957 104.178 262.253 104.284 262.52C104.394 262.783 104.559 262.993 104.779 263.15C105.003 263.307 105.281 263.385 105.614 263.385C105.944 263.385 106.228 263.308 106.464 263.155C106.704 263.002 106.858 262.78 106.924 262.49H107.799C107.736 262.84 107.596 263.135 107.379 263.375C107.163 263.615 106.901 263.797 106.594 263.92C106.288 264.04 105.968 264.1 105.634 264.1C105.151 264.1 104.726 263.995 104.359 263.785C103.993 263.575 103.706 263.273 103.499 262.88C103.293 262.487 103.189 262.015 103.189 261.465C103.189 260.922 103.283 260.445 103.469 260.035C103.656 259.625 103.926 259.305 104.279 259.075C104.636 258.845 105.064 258.73 105.564 258.73C106.051 258.73 106.463 258.835 106.799 259.045C107.136 259.255 107.391 259.552 107.564 259.935C107.741 260.315 107.829 260.767 107.829 261.29V261.63H104.124ZM104.129 261.005H106.939C106.939 260.708 106.889 260.442 106.789 260.205C106.689 259.965 106.536 259.777 106.329 259.64C106.126 259.5 105.869 259.43 105.559 259.43C105.236 259.43 104.968 259.508 104.754 259.665C104.544 259.818 104.386 260.017 104.279 260.26C104.176 260.5 104.126 260.748 104.129 261.005ZM111.335 265.61V258.83H112.255L112.265 259.73C112.325 259.623 112.402 259.512 112.495 259.395C112.592 259.278 112.709 259.17 112.845 259.07C112.985 258.97 113.147 258.888 113.33 258.825C113.517 258.762 113.729 258.73 113.965 258.73C114.379 258.73 114.742 258.825 115.055 259.015C115.372 259.202 115.619 259.488 115.795 259.875C115.972 260.262 116.06 260.752 116.06 261.345C116.06 261.938 115.974 262.44 115.8 262.85C115.63 263.257 115.384 263.567 115.06 263.78C114.737 263.993 114.347 264.1 113.89 264.1C113.66 264.1 113.455 264.067 113.275 264C113.099 263.937 112.944 263.853 112.81 263.75C112.68 263.643 112.57 263.53 112.48 263.41C112.394 263.29 112.322 263.175 112.265 263.065V265.61H111.335ZM113.715 263.38C114.142 263.38 114.49 263.218 114.76 262.895C115.03 262.568 115.165 262.062 115.165 261.375C115.165 260.785 115.042 260.317 114.795 259.97C114.549 259.623 114.189 259.45 113.715 259.45C113.235 259.45 112.872 259.628 112.625 259.985C112.379 260.338 112.255 260.802 112.255 261.375C112.255 261.745 112.31 262.082 112.42 262.385C112.53 262.688 112.694 262.93 112.91 263.11C113.127 263.29 113.395 263.38 113.715 263.38ZM118.634 264.1C118.301 264.1 118.006 264.042 117.749 263.925C117.493 263.805 117.291 263.633 117.144 263.41C117.001 263.187 116.929 262.917 116.929 262.6C116.929 262.027 117.129 261.6 117.529 261.32C117.929 261.04 118.571 260.89 119.454 260.87L120.379 260.845V260.44C120.379 260.123 120.284 259.873 120.094 259.69C119.904 259.503 119.609 259.41 119.209 259.41C118.913 259.413 118.651 259.483 118.424 259.62C118.201 259.757 118.056 259.98 117.989 260.29H117.174C117.194 259.953 117.289 259.67 117.459 259.44C117.629 259.207 117.866 259.03 118.169 258.91C118.476 258.79 118.838 258.73 119.254 258.73C119.704 258.73 120.078 258.793 120.374 258.92C120.674 259.047 120.898 259.233 121.044 259.48C121.194 259.727 121.269 260.03 121.269 260.39V264H120.479L120.414 263.03C120.214 263.433 119.959 263.713 119.649 263.87C119.343 264.023 119.004 264.1 118.634 264.1ZM118.914 263.435C119.088 263.435 119.259 263.403 119.429 263.34C119.603 263.277 119.761 263.192 119.904 263.085C120.048 262.975 120.161 262.853 120.244 262.72C120.331 262.583 120.376 262.443 120.379 262.3V261.415L119.609 261.43C119.216 261.437 118.886 261.477 118.619 261.55C118.356 261.623 118.158 261.738 118.024 261.895C117.894 262.052 117.829 262.257 117.829 262.51C117.829 262.8 117.929 263.027 118.129 263.19C118.333 263.353 118.594 263.435 118.914 263.435ZM123.193 265.65C122.89 265.65 122.681 265.628 122.568 265.585C122.455 265.542 122.398 265.52 122.398 265.52V264.92L122.923 264.93C123.116 264.937 123.276 264.923 123.403 264.89C123.53 264.857 123.631 264.812 123.708 264.755C123.785 264.698 123.843 264.635 123.883 264.565C123.926 264.495 123.961 264.428 123.988 264.365L124.168 263.875L122.148 258.83H123.083L124.608 262.82L126.123 258.83H127.028L124.848 264.39C124.715 264.717 124.565 264.972 124.398 265.155C124.235 265.338 124.051 265.467 123.848 265.54C123.648 265.613 123.43 265.65 123.193 265.65ZM128.015 264V258.83H128.905V259.58C129.048 259.353 129.245 259.155 129.495 258.985C129.745 258.815 130.07 258.73 130.47 258.73C130.657 258.73 130.847 258.762 131.04 258.825C131.237 258.888 131.417 258.983 131.58 259.11C131.743 259.237 131.87 259.392 131.96 259.575C132.12 259.322 132.337 259.118 132.61 258.965C132.883 258.808 133.192 258.73 133.535 258.73C133.715 258.73 133.903 258.758 134.1 258.815C134.297 258.868 134.478 258.965 134.645 259.105C134.815 259.242 134.953 259.433 135.06 259.68C135.167 259.923 135.22 260.237 135.22 260.62V264H134.29V260.71C134.29 260.397 134.24 260.155 134.14 259.985C134.04 259.812 133.908 259.69 133.745 259.62C133.585 259.55 133.413 259.515 133.23 259.515C133.07 259.515 132.9 259.547 132.72 259.61C132.54 259.673 132.387 259.78 132.26 259.93C132.133 260.08 132.07 260.285 132.07 260.545V264H131.15V260.44C131.15 260.237 131.095 260.067 130.985 259.93C130.878 259.793 130.743 259.69 130.58 259.62C130.42 259.55 130.26 259.515 130.1 259.515C129.923 259.515 129.745 259.55 129.565 259.62C129.388 259.69 129.238 259.802 129.115 259.955C128.995 260.105 128.935 260.302 128.935 260.545V264H128.015ZM137.327 261.63C137.327 261.957 137.381 262.253 137.487 262.52C137.597 262.783 137.762 262.993 137.982 263.15C138.206 263.307 138.484 263.385 138.817 263.385C139.147 263.385 139.431 263.308 139.667 263.155C139.907 263.002 140.061 262.78 140.127 262.49H141.002C140.939 262.84 140.799 263.135 140.582 263.375C140.366 263.615 140.104 263.797 139.797 263.92C139.491 264.04 139.171 264.1 138.837 264.1C138.354 264.1 137.929 263.995 137.562 263.785C137.196 263.575 136.909 263.273 136.702 262.88C136.496 262.487 136.392 262.015 136.392 261.465C136.392 260.922 136.486 260.445 136.672 260.035C136.859 259.625 137.129 259.305 137.482 259.075C137.839 258.845 138.267 258.73 138.767 258.73C139.254 258.73 139.666 258.835 140.002 259.045C140.339 259.255 140.594 259.552 140.767 259.935C140.944 260.315 141.032 260.767 141.032 261.29V261.63H137.327ZM137.332 261.005H140.142C140.142 260.708 140.092 260.442 139.992 260.205C139.892 259.965 139.739 259.777 139.532 259.64C139.329 259.5 139.072 259.43 138.762 259.43C138.439 259.43 138.171 259.508 137.957 259.665C137.747 259.818 137.589 260.017 137.482 260.26C137.379 260.5 137.329 260.748 137.332 261.005ZM142.302 264V258.83H143.197V259.58C143.28 259.437 143.395 259.302 143.542 259.175C143.692 259.048 143.872 258.947 144.082 258.87C144.295 258.793 144.54 258.755 144.817 258.755C145.144 258.755 145.444 258.82 145.717 258.95C145.994 259.08 146.214 259.283 146.377 259.56C146.544 259.833 146.627 260.187 146.627 260.62V264H145.702V260.71C145.702 260.307 145.595 260.008 145.382 259.815C145.172 259.618 144.899 259.52 144.562 259.52C144.329 259.52 144.11 259.558 143.907 259.635C143.704 259.708 143.539 259.822 143.412 259.975C143.285 260.125 143.222 260.315 143.222 260.545V264H142.302ZM150.456 259.505H149.291V262.72C149.291 262.903 149.309 263.038 149.346 263.125C149.386 263.208 149.451 263.262 149.541 263.285C149.634 263.308 149.761 263.32 149.921 263.32H150.486V263.94C150.423 263.963 150.326 263.983 150.196 264C150.069 264.017 149.911 264.025 149.721 264.025C149.364 264.025 149.088 263.977 148.891 263.88C148.694 263.783 148.556 263.64 148.476 263.45C148.399 263.26 148.361 263.027 148.361 262.75V259.505H147.521V258.83H148.386L148.611 257.325H149.291V258.825H150.456V259.505ZM154.089 264V256.57H154.989V259.59C155.076 259.447 155.193 259.313 155.339 259.19C155.486 259.063 155.664 258.962 155.874 258.885C156.084 258.805 156.328 258.765 156.604 258.765C156.941 258.765 157.246 258.828 157.519 258.955C157.793 259.078 158.009 259.255 158.169 259.485C158.329 259.715 158.409 259.988 158.409 260.305V264H157.484V260.49C157.484 260.18 157.378 259.942 157.164 259.775C156.954 259.605 156.679 259.52 156.339 259.52C156.109 259.52 155.893 259.558 155.689 259.635C155.486 259.708 155.321 259.822 155.194 259.975C155.071 260.125 155.009 260.317 155.009 260.55V264H154.089ZM161.261 264.1C160.928 264.1 160.633 264.042 160.376 263.925C160.12 263.805 159.918 263.633 159.771 263.41C159.628 263.187 159.556 262.917 159.556 262.6C159.556 262.027 159.756 261.6 160.156 261.32C160.556 261.04 161.198 260.89 162.081 260.87L163.006 260.845V260.44C163.006 260.123 162.911 259.873 162.721 259.69C162.531 259.503 162.236 259.41 161.836 259.41C161.54 259.413 161.278 259.483 161.051 259.62C160.828 259.757 160.683 259.98 160.616 260.29H159.801C159.821 259.953 159.916 259.67 160.086 259.44C160.256 259.207 160.493 259.03 160.796 258.91C161.103 258.79 161.465 258.73 161.881 258.73C162.331 258.73 162.705 258.793 163.001 258.92C163.301 259.047 163.525 259.233 163.671 259.48C163.821 259.727 163.896 260.03 163.896 260.39V264H163.106L163.041 263.03C162.841 263.433 162.586 263.713 162.276 263.87C161.97 264.023 161.631 264.1 161.261 264.1ZM161.541 263.435C161.715 263.435 161.886 263.403 162.056 263.34C162.23 263.277 162.388 263.192 162.531 263.085C162.675 262.975 162.788 262.853 162.871 262.72C162.958 262.583 163.003 262.443 163.006 262.3V261.415L162.236 261.43C161.843 261.437 161.513 261.477 161.246 261.55C160.983 261.623 160.785 261.738 160.651 261.895C160.521 262.052 160.456 262.257 160.456 262.51C160.456 262.8 160.556 263.027 160.756 263.19C160.96 263.353 161.221 263.435 161.541 263.435ZM167.223 264.1C166.863 264.1 166.528 264.045 166.218 263.935C165.911 263.822 165.656 263.647 165.453 263.41C165.25 263.17 165.121 262.865 165.068 262.495H165.908C165.955 262.698 166.038 262.868 166.158 263.005C166.281 263.138 166.435 263.24 166.618 263.31C166.801 263.377 167.001 263.41 167.218 263.41C167.565 263.41 167.845 263.345 168.058 263.215C168.271 263.085 168.378 262.885 168.378 262.615C168.378 262.425 168.321 262.273 168.208 262.16C168.098 262.043 167.926 261.958 167.693 261.905L166.623 261.64C166.206 261.54 165.873 261.383 165.623 261.17C165.373 260.957 165.248 260.658 165.248 260.275C165.245 259.972 165.316 259.705 165.463 259.475C165.61 259.245 165.83 259.063 166.123 258.93C166.416 258.797 166.781 258.73 167.218 258.73C167.778 258.73 168.23 258.857 168.573 259.11C168.92 259.36 169.1 259.728 169.113 260.215H168.298C168.265 259.968 168.153 259.773 167.963 259.63C167.776 259.483 167.525 259.41 167.208 259.41C166.878 259.41 166.61 259.477 166.403 259.61C166.196 259.74 166.093 259.943 166.093 260.22C166.093 260.403 166.166 260.548 166.313 260.655C166.46 260.758 166.676 260.845 166.963 260.915L167.998 261.175C168.238 261.238 168.435 261.322 168.588 261.425C168.745 261.528 168.868 261.643 168.958 261.77C169.051 261.897 169.116 262.03 169.153 262.17C169.193 262.307 169.213 262.438 169.213 262.565C169.213 262.882 169.133 263.155 168.973 263.385C168.816 263.612 168.59 263.788 168.293 263.915C168 264.038 167.643 264.1 167.223 264.1ZM175.326 264.1C175.023 264.1 174.766 264.06 174.556 263.98C174.349 263.9 174.179 263.798 174.046 263.675C173.913 263.548 173.809 263.42 173.736 263.29C173.663 263.157 173.609 263.04 173.576 262.94L173.476 264H172.771V256.57H173.701V259.65C173.744 259.563 173.809 259.468 173.896 259.365C173.986 259.262 174.101 259.162 174.241 259.065C174.381 258.968 174.546 258.888 174.736 258.825C174.929 258.762 175.149 258.73 175.396 258.73C176.043 258.73 176.556 258.955 176.936 259.405C177.319 259.855 177.511 260.518 177.511 261.395C177.511 261.938 177.429 262.413 177.266 262.82C177.103 263.223 176.859 263.538 176.536 263.765C176.213 263.988 175.809 264.1 175.326 264.1ZM175.161 263.39C175.581 263.39 175.923 263.228 176.186 262.905C176.449 262.578 176.581 262.06 176.581 261.35C176.581 260.747 176.458 260.28 176.211 259.95C175.968 259.617 175.611 259.45 175.141 259.45C174.798 259.45 174.521 259.525 174.311 259.675C174.104 259.822 173.951 260.037 173.851 260.32C173.754 260.603 173.704 260.947 173.701 261.35C173.701 262.073 173.813 262.595 174.036 262.915C174.263 263.232 174.638 263.39 175.161 263.39ZM179.378 261.63C179.378 261.957 179.431 262.253 179.538 262.52C179.648 262.783 179.813 262.993 180.033 263.15C180.256 263.307 180.535 263.385 180.868 263.385C181.198 263.385 181.481 263.308 181.718 263.155C181.958 263.002 182.111 262.78 182.178 262.49H183.053C182.99 262.84 182.85 263.135 182.633 263.375C182.416 263.615 182.155 263.797 181.848 263.92C181.541 264.04 181.221 264.1 180.888 264.1C180.405 264.1 179.98 263.995 179.613 263.785C179.246 263.575 178.96 263.273 178.753 262.88C178.546 262.487 178.443 262.015 178.443 261.465C178.443 260.922 178.536 260.445 178.723 260.035C178.91 259.625 179.18 259.305 179.533 259.075C179.89 258.845 180.318 258.73 180.818 258.73C181.305 258.73 181.716 258.835 182.053 259.045C182.39 259.255 182.645 259.552 182.818 259.935C182.995 260.315 183.083 260.767 183.083 261.29V261.63H179.378ZM179.383 261.005H182.193C182.193 260.708 182.143 260.442 182.043 260.205C181.943 259.965 181.79 259.777 181.583 259.64C181.38 259.5 181.123 259.43 180.813 259.43C180.49 259.43 180.221 259.508 180.008 259.665C179.798 259.818 179.64 260.017 179.533 260.26C179.43 260.5 179.38 260.748 179.383 261.005ZM185.013 261.63C185.013 261.957 185.066 262.253 185.173 262.52C185.283 262.783 185.448 262.993 185.668 263.15C185.891 263.307 186.17 263.385 186.503 263.385C186.833 263.385 187.116 263.308 187.353 263.155C187.593 263.002 187.746 262.78 187.813 262.49H188.688C188.625 262.84 188.485 263.135 188.268 263.375C188.051 263.615 187.79 263.797 187.483 263.92C187.176 264.04 186.856 264.1 186.523 264.1C186.04 264.1 185.615 263.995 185.248 263.785C184.881 263.575 184.595 263.273 184.388 262.88C184.181 262.487 184.078 262.015 184.078 261.465C184.078 260.922 184.171 260.445 184.358 260.035C184.545 259.625 184.815 259.305 185.168 259.075C185.525 258.845 185.953 258.73 186.453 258.73C186.94 258.73 187.351 258.835 187.688 259.045C188.025 259.255 188.28 259.552 188.453 259.935C188.63 260.315 188.718 260.767 188.718 261.29V261.63H185.013ZM185.018 261.005H187.828C187.828 260.708 187.778 260.442 187.678 260.205C187.578 259.965 187.425 259.777 187.218 259.64C187.015 259.5 186.758 259.43 186.448 259.43C186.125 259.43 185.856 259.508 185.643 259.665C185.433 259.818 185.275 260.017 185.168 260.26C185.065 260.5 185.015 260.748 185.018 261.005ZM189.988 264V258.83H190.883V259.58C190.966 259.437 191.081 259.302 191.228 259.175C191.378 259.048 191.558 258.947 191.768 258.87C191.981 258.793 192.226 258.755 192.503 258.755C192.829 258.755 193.129 258.82 193.403 258.95C193.679 259.08 193.899 259.283 194.063 259.56C194.229 259.833 194.313 260.187 194.313 260.62V264H193.388V260.71C193.388 260.307 193.281 260.008 193.068 259.815C192.858 259.618 192.584 259.52 192.248 259.52C192.014 259.52 191.796 259.558 191.593 259.635C191.389 259.708 191.224 259.822 191.098 259.975C190.971 260.125 190.908 260.315 190.908 260.545V264H189.988ZM198.064 265.61V258.83H198.984L198.994 259.73C199.054 259.623 199.13 259.512 199.224 259.395C199.32 259.278 199.437 259.17 199.574 259.07C199.714 258.97 199.875 258.888 200.059 258.825C200.245 258.762 200.457 258.73 200.694 258.73C201.107 258.73 201.47 258.825 201.784 259.015C202.1 259.202 202.347 259.488 202.524 259.875C202.7 260.262 202.789 260.752 202.789 261.345C202.789 261.938 202.702 262.44 202.529 262.85C202.359 263.257 202.112 263.567 201.789 263.78C201.465 263.993 201.075 264.1 200.619 264.1C200.389 264.1 200.184 264.067 200.004 264C199.827 263.937 199.672 263.853 199.539 263.75C199.409 263.643 199.299 263.53 199.209 263.41C199.122 263.29 199.05 263.175 198.994 263.065V265.61H198.064ZM200.444 263.38C200.87 263.38 201.219 263.218 201.489 262.895C201.759 262.568 201.894 262.062 201.894 261.375C201.894 260.785 201.77 260.317 201.524 259.97C201.277 259.623 200.917 259.45 200.444 259.45C199.964 259.45 199.6 259.628 199.354 259.985C199.107 260.338 198.984 260.802 198.984 261.375C198.984 261.745 199.039 262.082 199.149 262.385C199.259 262.688 199.422 262.93 199.639 263.11C199.855 263.29 200.124 263.38 200.444 263.38ZM204.001 264V258.83H204.881V259.825C204.968 259.578 205.09 259.375 205.246 259.215C205.403 259.052 205.581 258.93 205.781 258.85C205.985 258.77 206.195 258.73 206.411 258.73C206.488 258.73 206.563 258.735 206.636 258.745C206.71 258.755 206.766 258.772 206.806 258.795V259.69C206.756 259.667 206.691 259.652 206.611 259.645C206.535 259.635 206.47 259.63 206.416 259.63C206.21 259.617 206.016 259.63 205.836 259.67C205.656 259.707 205.498 259.772 205.361 259.865C205.225 259.958 205.116 260.082 205.036 260.235C204.96 260.385 204.921 260.568 204.921 260.785V264H204.001ZM209.816 264.1C209.339 264.1 208.923 263.998 208.566 263.795C208.209 263.588 207.933 263.287 207.736 262.89C207.539 262.493 207.441 262.008 207.441 261.435C207.441 260.895 207.533 260.422 207.716 260.015C207.899 259.608 208.168 259.293 208.521 259.07C208.878 258.843 209.309 258.73 209.816 258.73C210.293 258.73 210.706 258.835 211.056 259.045C211.409 259.252 211.683 259.557 211.876 259.96C212.069 260.363 212.166 260.855 212.166 261.435C212.166 261.962 212.076 262.425 211.896 262.825C211.719 263.225 211.456 263.538 211.106 263.765C210.759 263.988 210.329 264.1 209.816 264.1ZM209.816 263.37C210.126 263.37 210.388 263.292 210.601 263.135C210.814 262.978 210.976 262.753 211.086 262.46C211.196 262.167 211.251 261.818 211.251 261.415C211.251 261.045 211.203 260.713 211.106 260.42C211.009 260.123 210.854 259.888 210.641 259.715C210.431 259.542 210.156 259.455 209.816 259.455C209.503 259.455 209.238 259.533 209.021 259.69C208.804 259.843 208.639 260.067 208.526 260.36C208.416 260.653 208.361 261.005 208.361 261.415C208.361 261.778 208.411 262.108 208.511 262.405C208.611 262.702 208.768 262.937 208.981 263.11C209.194 263.283 209.473 263.37 209.816 263.37ZM215.436 258.73C215.806 258.73 216.14 258.802 216.436 258.945C216.733 259.085 216.975 259.285 217.161 259.545C217.351 259.805 217.47 260.112 217.516 260.465H216.696C216.666 260.285 216.596 260.12 216.486 259.97C216.38 259.82 216.238 259.7 216.061 259.61C215.885 259.52 215.678 259.475 215.441 259.475C214.998 259.475 214.638 259.635 214.361 259.955C214.085 260.275 213.946 260.765 213.946 261.425C213.946 262.022 214.073 262.5 214.326 262.86C214.583 263.217 214.96 263.395 215.456 263.395C215.693 263.395 215.898 263.35 216.071 263.26C216.248 263.167 216.39 263.045 216.496 262.895C216.603 262.742 216.671 262.578 216.701 262.405H217.506C217.463 262.752 217.346 263.052 217.156 263.305C216.966 263.558 216.723 263.755 216.426 263.895C216.133 264.032 215.803 264.1 215.436 264.1C214.973 264.1 214.561 263.998 214.201 263.795C213.845 263.592 213.565 263.292 213.361 262.895C213.158 262.498 213.056 262.012 213.056 261.435C213.056 260.895 213.148 260.423 213.331 260.02C213.518 259.613 213.788 259.297 214.141 259.07C214.498 258.843 214.93 258.73 215.436 258.73ZM219.427 261.63C219.427 261.957 219.48 262.253 219.587 262.52C219.697 262.783 219.862 262.993 220.082 263.15C220.305 263.307 220.584 263.385 220.917 263.385C221.247 263.385 221.53 263.308 221.767 263.155C222.007 263.002 222.16 262.78 222.227 262.49H223.102C223.039 262.84 222.899 263.135 222.682 263.375C222.465 263.615 222.204 263.797 221.897 263.92C221.59 264.04 221.27 264.1 220.937 264.1C220.454 264.1 220.029 263.995 219.662 263.785C219.295 263.575 219.009 263.273 218.802 262.88C218.595 262.487 218.492 262.015 218.492 261.465C218.492 260.922 218.585 260.445 218.772 260.035C218.959 259.625 219.229 259.305 219.582 259.075C219.939 258.845 220.367 258.73 220.867 258.73C221.354 258.73 221.765 258.835 222.102 259.045C222.439 259.255 222.694 259.552 222.867 259.935C223.044 260.315 223.132 260.767 223.132 261.29V261.63H219.427ZM219.432 261.005H222.242C222.242 260.708 222.192 260.442 222.092 260.205C221.992 259.965 221.839 259.777 221.632 259.64C221.429 259.5 221.172 259.43 220.862 259.43C220.539 259.43 220.27 259.508 220.057 259.665C219.847 259.818 219.689 260.017 219.582 260.26C219.479 260.5 219.429 260.748 219.432 261.005ZM226.198 264.1C225.838 264.1 225.503 264.045 225.193 263.935C224.886 263.822 224.631 263.647 224.428 263.41C224.224 263.17 224.096 262.865 224.043 262.495H224.883C224.929 262.698 225.013 262.868 225.133 263.005C225.256 263.138 225.409 263.24 225.593 263.31C225.776 263.377 225.976 263.41 226.193 263.41C226.539 263.41 226.819 263.345 227.033 263.215C227.246 263.085 227.353 262.885 227.353 262.615C227.353 262.425 227.296 262.273 227.183 262.16C227.073 262.043 226.901 261.958 226.668 261.905L225.598 261.64C225.181 261.54 224.848 261.383 224.598 261.17C224.348 260.957 224.223 260.658 224.223 260.275C224.219 259.972 224.291 259.705 224.438 259.475C224.584 259.245 224.804 259.063 225.098 258.93C225.391 258.797 225.756 258.73 226.193 258.73C226.753 258.73 227.204 258.857 227.548 259.11C227.894 259.36 228.074 259.728 228.088 260.215H227.273C227.239 259.968 227.128 259.773 226.938 259.63C226.751 259.483 226.499 259.41 226.183 259.41C225.853 259.41 225.584 259.477 225.378 259.61C225.171 259.74 225.068 259.943 225.068 260.22C225.068 260.403 225.141 260.548 225.288 260.655C225.434 260.758 225.651 260.845 225.938 260.915L226.973 261.175C227.213 261.238 227.409 261.322 227.563 261.425C227.719 261.528 227.843 261.643 227.933 261.77C228.026 261.897 228.091 262.03 228.128 262.17C228.168 262.307 228.188 262.438 228.188 262.565C228.188 262.882 228.108 263.155 227.948 263.385C227.791 263.612 227.564 263.788 227.268 263.915C226.974 264.038 226.618 264.1 226.198 264.1ZM231.227 264.1C230.867 264.1 230.532 264.045 230.222 263.935C229.915 263.822 229.66 263.647 229.457 263.41C229.254 263.17 229.125 262.865 229.072 262.495H229.912C229.959 262.698 230.042 262.868 230.162 263.005C230.285 263.138 230.439 263.24 230.622 263.31C230.805 263.377 231.005 263.41 231.222 263.41C231.569 263.41 231.849 263.345 232.062 263.215C232.275 263.085 232.382 262.885 232.382 262.615C232.382 262.425 232.325 262.273 232.212 262.16C232.102 262.043 231.93 261.958 231.697 261.905L230.627 261.64C230.21 261.54 229.877 261.383 229.627 261.17C229.377 260.957 229.252 260.658 229.252 260.275C229.249 259.972 229.32 259.705 229.467 259.475C229.614 259.245 229.834 259.063 230.127 258.93C230.42 258.797 230.785 258.73 231.222 258.73C231.782 258.73 232.234 258.857 232.577 259.11C232.924 259.36 233.104 259.728 233.117 260.215H232.302C232.269 259.968 232.157 259.773 231.967 259.63C231.78 259.483 231.529 259.41 231.212 259.41C230.882 259.41 230.614 259.477 230.407 259.61C230.2 259.74 230.097 259.943 230.097 260.22C230.097 260.403 230.17 260.548 230.317 260.655C230.464 260.758 230.68 260.845 230.967 260.915L232.002 261.175C232.242 261.238 232.439 261.322 232.592 261.425C232.749 261.528 232.872 261.643 232.962 261.77C233.055 261.897 233.12 262.03 233.157 262.17C233.197 262.307 233.217 262.438 233.217 262.565C233.217 262.882 233.137 263.155 232.977 263.385C232.82 263.612 232.594 263.788 232.297 263.915C232.004 264.038 231.647 264.1 231.227 264.1ZM235.169 261.63C235.169 261.957 235.222 262.253 235.329 262.52C235.439 262.783 235.604 262.993 235.824 263.15C236.047 263.307 236.326 263.385 236.659 263.385C236.989 263.385 237.272 263.308 237.509 263.155C237.749 263.002 237.902 262.78 237.969 262.49H238.844C238.781 262.84 238.641 263.135 238.424 263.375C238.207 263.615 237.946 263.797 237.639 263.92C237.332 264.04 237.012 264.1 236.679 264.1C236.196 264.1 235.771 263.995 235.404 263.785C235.037 263.575 234.751 263.273 234.544 262.88C234.337 262.487 234.234 262.015 234.234 261.465C234.234 260.922 234.327 260.445 234.514 260.035C234.701 259.625 234.971 259.305 235.324 259.075C235.681 258.845 236.109 258.73 236.609 258.73C237.096 258.73 237.507 258.835 237.844 259.045C238.181 259.255 238.436 259.552 238.609 259.935C238.786 260.315 238.874 260.767 238.874 261.29V261.63H235.169ZM235.174 261.005H237.984C237.984 260.708 237.934 260.442 237.834 260.205C237.734 259.965 237.581 259.777 237.374 259.64C237.171 259.5 236.914 259.43 236.604 259.43C236.281 259.43 236.012 259.508 235.799 259.665C235.589 259.818 235.431 260.017 235.324 260.26C235.221 260.5 235.171 260.748 235.174 261.005ZM242.009 264.1C241.339 264.1 240.807 263.87 240.414 263.41C240.021 262.95 239.824 262.278 239.824 261.395C239.824 260.858 239.902 260.39 240.059 259.99C240.219 259.59 240.456 259.28 240.769 259.06C241.082 258.84 241.472 258.73 241.939 258.73C242.186 258.73 242.404 258.762 242.594 258.825C242.787 258.888 242.954 258.968 243.094 259.065C243.234 259.162 243.347 259.262 243.434 259.365C243.524 259.468 243.591 259.563 243.634 259.65V256.57H244.564V264H243.859L243.759 262.94C243.726 263.04 243.672 263.157 243.599 263.29C243.526 263.42 243.422 263.548 243.289 263.675C243.156 263.798 242.984 263.9 242.774 263.98C242.567 264.06 242.312 264.1 242.009 264.1ZM242.174 263.39C242.697 263.39 243.071 263.232 243.294 262.915C243.521 262.595 243.634 262.073 243.634 261.35C243.631 260.947 243.579 260.603 243.479 260.32C243.382 260.037 243.229 259.822 243.019 259.675C242.812 259.525 242.537 259.45 242.194 259.45C241.767 259.45 241.421 259.602 241.154 259.905C240.887 260.208 240.754 260.69 240.754 261.35C240.754 261.997 240.874 262.498 241.114 262.855C241.357 263.212 241.711 263.39 242.174 263.39ZM245.876 264V262.82H246.976V264H245.876ZM250.048 257.62V256.77H255.518V257.62H253.313V264H252.383V257.62H250.048ZM256.521 264V256.57H257.421V259.59C257.508 259.447 257.624 259.313 257.771 259.19C257.918 259.063 258.096 258.962 258.306 258.885C258.516 258.805 258.759 258.765 259.036 258.765C259.373 258.765 259.678 258.828 259.951 258.955C260.224 259.078 260.441 259.255 260.601 259.485C260.761 259.715 260.841 259.988 260.841 260.305V264H259.916V260.49C259.916 260.18 259.809 259.942 259.596 259.775C259.386 259.605 259.111 259.52 258.771 259.52C258.541 259.52 258.324 259.558 258.121 259.635C257.918 259.708 257.753 259.822 257.626 259.975C257.503 260.125 257.441 260.317 257.441 260.55V264H256.521ZM262.943 261.63C262.943 261.957 262.996 262.253 263.103 262.52C263.213 262.783 263.378 262.993 263.598 263.15C263.821 263.307 264.099 263.385 264.433 263.385C264.763 263.385 265.046 263.308 265.283 263.155C265.523 263.002 265.676 262.78 265.743 262.49H266.618C266.554 262.84 266.414 263.135 266.198 263.375C265.981 263.615 265.719 263.797 265.413 263.92C265.106 264.04 264.786 264.1 264.453 264.1C263.969 264.1 263.544 263.995 263.178 263.785C262.811 263.575 262.524 263.273 262.318 262.88C262.111 262.487 262.008 262.015 262.008 261.465C262.008 260.922 262.101 260.445 262.288 260.035C262.474 259.625 262.744 259.305 263.098 259.075C263.454 258.845 263.883 258.73 264.383 258.73C264.869 258.73 265.281 258.835 265.618 259.045C265.954 259.255 266.209 259.552 266.383 259.935C266.559 260.315 266.648 260.767 266.648 261.29V261.63H262.943ZM262.948 261.005H265.758C265.758 260.708 265.708 260.442 265.608 260.205C265.508 259.965 265.354 259.777 265.148 259.64C264.944 259.5 264.688 259.43 264.378 259.43C264.054 259.43 263.786 259.508 263.573 259.665C263.363 259.818 263.204 260.017 263.098 260.26C262.994 260.5 262.944 260.748 262.948 261.005ZM94.46 273.505H93.295V276.72C93.295 276.903 93.3133 277.038 93.35 277.125C93.39 277.208 93.455 277.262 93.545 277.285C93.6383 277.308 93.765 277.32 93.925 277.32H94.49V277.94C94.4267 277.963 94.33 277.983 94.2 278C94.0733 278.017 93.915 278.025 93.725 278.025C93.3683 278.025 93.0917 277.977 92.895 277.88C92.6983 277.783 92.56 277.64 92.48 277.45C92.4033 277.26 92.365 277.027 92.365 276.75V273.505H91.525V272.83H92.39L92.615 271.325H93.295V272.825H94.46V273.505ZM97.7067 278.1C97.2301 278.1 96.8134 277.998 96.4567 277.795C96.1001 277.588 95.8234 277.287 95.6267 276.89C95.4301 276.493 95.3317 276.008 95.3317 275.435C95.3317 274.895 95.4234 274.422 95.6067 274.015C95.7901 273.608 96.0584 273.293 96.4117 273.07C96.7684 272.843 97.2001 272.73 97.7067 272.73C98.1834 272.73 98.5967 272.835 98.9467 273.045C99.3001 273.252 99.5734 273.557 99.7667 273.96C99.9601 274.363 100.057 274.855 100.057 275.435C100.057 275.962 99.9667 276.425 99.7867 276.825C99.6101 277.225 99.3467 277.538 98.9967 277.765C98.6501 277.988 98.2201 278.1 97.7067 278.1ZM97.7067 277.37C98.0167 277.37 98.2784 277.292 98.4917 277.135C98.7051 276.978 98.8667 276.753 98.9767 276.46C99.0867 276.167 99.1417 275.818 99.1417 275.415C99.1417 275.045 99.0934 274.713 98.9967 274.42C98.9001 274.123 98.7451 273.888 98.5317 273.715C98.3217 273.542 98.0467 273.455 97.7067 273.455C97.3934 273.455 97.1284 273.533 96.9117 273.69C96.6951 273.843 96.5301 274.067 96.4167 274.36C96.3067 274.653 96.2517 275.005 96.2517 275.415C96.2517 275.778 96.3017 276.108 96.4017 276.405C96.5017 276.702 96.6584 276.937 96.8717 277.11C97.0851 277.283 97.3634 277.37 97.7067 277.37ZM103.728 273.505H102.563V276.72C102.563 276.903 102.581 277.038 102.618 277.125C102.658 277.208 102.723 277.262 102.813 277.285C102.906 277.308 103.033 277.32 103.193 277.32H103.758V277.94C103.694 277.963 103.598 277.983 103.468 278C103.341 278.017 103.183 278.025 102.993 278.025C102.636 278.025 102.359 277.977 102.163 277.88C101.966 277.783 101.828 277.64 101.748 277.45C101.671 277.26 101.633 277.027 101.633 276.75V273.505H100.793V272.83H101.658L101.883 271.325H102.563V272.825H103.728V273.505ZM106.447 278.1C106.114 278.1 105.819 278.042 105.562 277.925C105.305 277.805 105.104 277.633 104.957 277.41C104.814 277.187 104.742 276.917 104.742 276.6C104.742 276.027 104.942 275.6 105.342 275.32C105.742 275.04 106.384 274.89 107.267 274.87L108.192 274.845V274.44C108.192 274.123 108.097 273.873 107.907 273.69C107.717 273.503 107.422 273.41 107.022 273.41C106.725 273.413 106.464 273.483 106.237 273.62C106.014 273.757 105.869 273.98 105.802 274.29H104.987C105.007 273.953 105.102 273.67 105.272 273.44C105.442 273.207 105.679 273.03 105.982 272.91C106.289 272.79 106.65 272.73 107.067 272.73C107.517 272.73 107.89 272.793 108.187 272.92C108.487 273.047 108.71 273.233 108.857 273.48C109.007 273.727 109.082 274.03 109.082 274.39V278H108.292L108.227 277.03C108.027 277.433 107.772 277.713 107.462 277.87C107.155 278.023 106.817 278.1 106.447 278.1ZM106.727 277.435C106.9 277.435 107.072 277.403 107.242 277.34C107.415 277.277 107.574 277.192 107.717 277.085C107.86 276.975 107.974 276.853 108.057 276.72C108.144 276.583 108.189 276.443 108.192 276.3V275.415L107.422 275.43C107.029 275.437 106.699 275.477 106.432 275.55C106.169 275.623 105.97 275.738 105.837 275.895C105.707 276.052 105.642 276.257 105.642 276.51C105.642 276.8 105.742 277.027 105.942 277.19C106.145 277.353 106.407 277.435 106.727 277.435ZM111.966 278.065C111.686 278.065 111.46 278.027 111.286 277.95C111.116 277.873 110.985 277.77 110.891 277.64C110.801 277.51 110.74 277.362 110.706 277.195C110.676 277.025 110.661 276.85 110.661 276.67V270.57H111.571V276.58C111.571 276.84 111.621 277.035 111.721 277.165C111.825 277.295 111.968 277.367 112.151 277.38L112.431 277.385V277.985C112.355 278.008 112.275 278.027 112.191 278.04C112.108 278.057 112.033 278.065 111.966 278.065ZM117.375 278.1C117.041 278.1 116.746 278.042 116.49 277.925C116.233 277.805 116.031 277.633 115.885 277.41C115.741 277.187 115.67 276.917 115.67 276.6C115.67 276.027 115.87 275.6 116.27 275.32C116.67 275.04 117.311 274.89 118.195 274.87L119.12 274.845V274.44C119.12 274.123 119.025 273.873 118.835 273.69C118.645 273.503 118.35 273.41 117.95 273.41C117.653 273.413 117.391 273.483 117.165 273.62C116.941 273.757 116.796 273.98 116.73 274.29H115.915C115.935 273.953 116.03 273.67 116.2 273.44C116.37 273.207 116.606 273.03 116.91 272.91C117.216 272.79 117.578 272.73 117.995 272.73C118.445 272.73 118.818 272.793 119.115 272.92C119.415 273.047 119.638 273.233 119.785 273.48C119.935 273.727 120.01 274.03 120.01 274.39V278H119.22L119.155 277.03C118.955 277.433 118.7 277.713 118.39 277.87C118.083 278.023 117.745 278.1 117.375 278.1ZM117.655 277.435C117.828 277.435 118 277.403 118.17 277.34C118.343 277.277 118.501 277.192 118.645 277.085C118.788 276.975 118.901 276.853 118.985 276.72C119.071 276.583 119.116 276.443 119.12 276.3V275.415L118.35 275.43C117.956 275.437 117.626 275.477 117.36 275.55C117.096 275.623 116.898 275.738 116.765 275.895C116.635 276.052 116.57 276.257 116.57 276.51C116.57 276.8 116.67 277.027 116.87 277.19C117.073 277.353 117.335 277.435 117.655 277.435ZM121.589 278V272.83H122.479V273.58C122.623 273.353 122.819 273.155 123.069 272.985C123.319 272.815 123.644 272.73 124.044 272.73C124.231 272.73 124.421 272.762 124.614 272.825C124.811 272.888 124.991 272.983 125.154 273.11C125.318 273.237 125.444 273.392 125.534 273.575C125.694 273.322 125.911 273.118 126.184 272.965C126.458 272.808 126.766 272.73 127.109 272.73C127.289 272.73 127.478 272.758 127.674 272.815C127.871 272.868 128.053 272.965 128.219 273.105C128.389 273.242 128.528 273.433 128.634 273.68C128.741 273.923 128.794 274.237 128.794 274.62V278H127.864V274.71C127.864 274.397 127.814 274.155 127.714 273.985C127.614 273.812 127.483 273.69 127.319 273.62C127.159 273.55 126.988 273.515 126.804 273.515C126.644 273.515 126.474 273.547 126.294 273.61C126.114 273.673 125.961 273.78 125.834 273.93C125.708 274.08 125.644 274.285 125.644 274.545V278H124.724V274.44C124.724 274.237 124.669 274.067 124.559 273.93C124.453 273.793 124.318 273.69 124.154 273.62C123.994 273.55 123.834 273.515 123.674 273.515C123.498 273.515 123.319 273.55 123.139 273.62C122.963 273.69 122.813 273.802 122.689 273.955C122.569 274.105 122.509 274.302 122.509 274.545V278H121.589ZM132.297 278.1C131.82 278.1 131.403 277.998 131.047 277.795C130.69 277.588 130.413 277.287 130.217 276.89C130.02 276.493 129.922 276.008 129.922 275.435C129.922 274.895 130.013 274.422 130.197 274.015C130.38 273.608 130.648 273.293 131.002 273.07C131.358 272.843 131.79 272.73 132.297 272.73C132.773 272.73 133.187 272.835 133.537 273.045C133.89 273.252 134.163 273.557 134.357 273.96C134.55 274.363 134.647 274.855 134.647 275.435C134.647 275.962 134.557 276.425 134.377 276.825C134.2 277.225 133.937 277.538 133.587 277.765C133.24 277.988 132.81 278.1 132.297 278.1ZM132.297 277.37C132.607 277.37 132.868 277.292 133.082 277.135C133.295 276.978 133.457 276.753 133.567 276.46C133.677 276.167 133.732 275.818 133.732 275.415C133.732 275.045 133.683 274.713 133.587 274.42C133.49 274.123 133.335 273.888 133.122 273.715C132.912 273.542 132.637 273.455 132.297 273.455C131.983 273.455 131.718 273.533 131.502 273.69C131.285 273.843 131.12 274.067 131.007 274.36C130.897 274.653 130.842 275.005 130.842 275.415C130.842 275.778 130.892 276.108 130.992 276.405C131.092 276.702 131.248 276.937 131.462 277.11C131.675 277.283 131.953 277.37 132.297 277.37ZM137.669 278.1C137.399 278.097 137.144 278.058 136.904 277.985C136.667 277.908 136.457 277.797 136.274 277.65C136.091 277.503 135.946 277.322 135.839 277.105C135.736 276.885 135.684 276.63 135.684 276.34V272.83H136.609V276.245C136.609 276.582 136.712 276.855 136.919 277.065C137.129 277.275 137.444 277.38 137.864 277.38C138.244 277.38 138.549 277.282 138.779 277.085C139.012 276.885 139.129 276.588 139.129 276.195V272.83H140.049V278H139.314L139.219 277.01C139.156 277.27 139.047 277.48 138.894 277.64C138.744 277.8 138.562 277.918 138.349 277.995C138.139 278.068 137.912 278.103 137.669 278.1ZM141.56 278V272.83H142.455V273.58C142.538 273.437 142.653 273.302 142.8 273.175C142.95 273.048 143.13 272.947 143.34 272.87C143.553 272.793 143.798 272.755 144.075 272.755C144.402 272.755 144.702 272.82 144.975 272.95C145.252 273.08 145.472 273.283 145.635 273.56C145.802 273.833 145.885 274.187 145.885 274.62V278H144.96V274.71C144.96 274.307 144.853 274.008 144.64 273.815C144.43 273.618 144.157 273.52 143.82 273.52C143.587 273.52 143.368 273.558 143.165 273.635C142.962 273.708 142.797 273.822 142.67 273.975C142.543 274.125 142.48 274.315 142.48 274.545V278H141.56ZM149.714 273.505H148.549V276.72C148.549 276.903 148.567 277.038 148.604 277.125C148.644 277.208 148.709 277.262 148.799 277.285C148.892 277.308 149.019 277.32 149.179 277.32H149.744V277.94C149.681 277.963 149.584 277.983 149.454 278C149.327 278.017 149.169 278.025 148.979 278.025C148.622 278.025 148.346 277.977 148.149 277.88C147.952 277.783 147.814 277.64 147.734 277.45C147.657 277.26 147.619 277.027 147.619 276.75V273.505H146.779V272.83H147.644L147.869 271.325H148.549V272.825H149.714V273.505ZM155.085 278.1C154.415 278.1 153.883 277.87 153.49 277.41C153.097 276.95 152.9 276.278 152.9 275.395C152.9 274.858 152.978 274.39 153.135 273.99C153.295 273.59 153.532 273.28 153.845 273.06C154.158 272.84 154.548 272.73 155.015 272.73C155.262 272.73 155.48 272.762 155.67 272.825C155.863 272.888 156.03 272.968 156.17 273.065C156.31 273.162 156.423 273.262 156.51 273.365C156.6 273.468 156.667 273.563 156.71 273.65V270.57H157.64V278H156.935L156.835 276.94C156.802 277.04 156.748 277.157 156.675 277.29C156.602 277.42 156.498 277.548 156.365 277.675C156.232 277.798 156.06 277.9 155.85 277.98C155.643 278.06 155.388 278.1 155.085 278.1ZM155.25 277.39C155.773 277.39 156.147 277.232 156.37 276.915C156.597 276.595 156.71 276.073 156.71 275.35C156.707 274.947 156.655 274.603 156.555 274.32C156.458 274.037 156.305 273.822 156.095 273.675C155.888 273.525 155.613 273.45 155.27 273.45C154.843 273.45 154.497 273.602 154.23 273.905C153.963 274.208 153.83 274.69 153.83 275.35C153.83 275.997 153.95 276.498 154.19 276.855C154.433 277.212 154.787 277.39 155.25 277.39ZM159.827 275.63C159.827 275.957 159.881 276.253 159.987 276.52C160.097 276.783 160.262 276.993 160.482 277.15C160.706 277.307 160.984 277.385 161.317 277.385C161.647 277.385 161.931 277.308 162.167 277.155C162.407 277.002 162.561 276.78 162.627 276.49H163.502C163.439 276.84 163.299 277.135 163.082 277.375C162.866 277.615 162.604 277.797 162.297 277.92C161.991 278.04 161.671 278.1 161.337 278.1C160.854 278.1 160.429 277.995 160.062 277.785C159.696 277.575 159.409 277.273 159.202 276.88C158.996 276.487 158.892 276.015 158.892 275.465C158.892 274.922 158.986 274.445 159.172 274.035C159.359 273.625 159.629 273.305 159.982 273.075C160.339 272.845 160.767 272.73 161.267 272.73C161.754 272.73 162.166 272.835 162.502 273.045C162.839 273.255 163.094 273.552 163.267 273.935C163.444 274.315 163.532 274.767 163.532 275.29V275.63H159.827ZM159.832 275.005H162.642C162.642 274.708 162.592 274.442 162.492 274.205C162.392 273.965 162.239 273.777 162.032 273.64C161.829 273.5 161.572 273.43 161.262 273.43C160.939 273.43 160.671 273.508 160.457 273.665C160.247 273.818 160.089 274.017 159.982 274.26C159.879 274.5 159.829 274.748 159.832 275.005ZM166.667 278.1C165.997 278.1 165.465 277.87 165.072 277.41C164.679 276.95 164.482 276.278 164.482 275.395C164.482 274.858 164.56 274.39 164.717 273.99C164.877 273.59 165.114 273.28 165.427 273.06C165.74 272.84 166.13 272.73 166.597 272.73C166.844 272.73 167.062 272.762 167.252 272.825C167.445 272.888 167.612 272.968 167.752 273.065C167.892 273.162 168.005 273.262 168.092 273.365C168.182 273.468 168.249 273.563 168.292 273.65V270.57H169.222V278H168.517L168.417 276.94C168.384 277.04 168.33 277.157 168.257 277.29C168.184 277.42 168.08 277.548 167.947 277.675C167.814 277.798 167.642 277.9 167.432 277.98C167.225 278.06 166.97 278.1 166.667 278.1ZM166.832 277.39C167.355 277.39 167.729 277.232 167.952 276.915C168.179 276.595 168.292 276.073 168.292 275.35C168.289 274.947 168.237 274.603 168.137 274.32C168.04 274.037 167.887 273.822 167.677 273.675C167.47 273.525 167.195 273.45 166.852 273.45C166.425 273.45 166.079 273.602 165.812 273.905C165.545 274.208 165.412 274.69 165.412 275.35C165.412 275.997 165.532 276.498 165.772 276.855C166.015 277.212 166.369 277.39 166.832 277.39ZM172.649 278.1C172.379 278.097 172.124 278.058 171.884 277.985C171.648 277.908 171.438 277.797 171.254 277.65C171.071 277.503 170.926 277.322 170.819 277.105C170.716 276.885 170.664 276.63 170.664 276.34V272.83H171.589V276.245C171.589 276.582 171.693 276.855 171.899 277.065C172.109 277.275 172.424 277.38 172.844 277.38C173.224 277.38 173.529 277.282 173.759 277.085C173.993 276.885 174.109 276.588 174.109 276.195V272.83H175.029V278H174.294L174.199 277.01C174.136 277.27 174.028 277.48 173.874 277.64C173.724 277.8 173.543 277.918 173.329 277.995C173.119 278.068 172.893 278.103 172.649 278.1ZM178.532 272.73C178.902 272.73 179.235 272.802 179.532 272.945C179.829 273.085 180.07 273.285 180.257 273.545C180.447 273.805 180.565 274.112 180.612 274.465H179.792C179.762 274.285 179.692 274.12 179.582 273.97C179.475 273.82 179.334 273.7 179.157 273.61C178.98 273.52 178.774 273.475 178.537 273.475C178.094 273.475 177.734 273.635 177.457 273.955C177.18 274.275 177.042 274.765 177.042 275.425C177.042 276.022 177.169 276.5 177.422 276.86C177.679 277.217 178.055 277.395 178.552 277.395C178.789 277.395 178.994 277.35 179.167 277.26C179.344 277.167 179.485 277.045 179.592 276.895C179.699 276.742 179.767 276.578 179.797 276.405H180.602C180.559 276.752 180.442 277.052 180.252 277.305C180.062 277.558 179.819 277.755 179.522 277.895C179.229 278.032 178.899 278.1 178.532 278.1C178.069 278.1 177.657 277.998 177.297 277.795C176.94 277.592 176.66 277.292 176.457 276.895C176.254 276.498 176.152 276.012 176.152 275.435C176.152 274.895 176.244 274.423 176.427 274.02C176.614 273.613 176.884 273.297 177.237 273.07C177.594 272.843 178.025 272.73 178.532 272.73ZM184.323 273.505H183.158V276.72C183.158 276.903 183.177 277.038 183.213 277.125C183.253 277.208 183.318 277.262 183.408 277.285C183.502 277.308 183.628 277.32 183.788 277.32H184.353V277.94C184.29 277.963 184.193 277.983 184.063 278C183.937 278.017 183.778 278.025 183.588 278.025C183.232 278.025 182.955 277.977 182.758 277.88C182.562 277.783 182.423 277.64 182.343 277.45C182.267 277.26 182.228 277.027 182.228 276.75V273.505H181.388V272.83H182.253L182.478 271.325H183.158V272.825H184.323V273.505ZM186.175 275.63C186.175 275.957 186.228 276.253 186.335 276.52C186.445 276.783 186.61 276.993 186.83 277.15C187.053 277.307 187.332 277.385 187.665 277.385C187.995 277.385 188.278 277.308 188.515 277.155C188.755 277.002 188.908 276.78 188.975 276.49H189.85C189.787 276.84 189.647 277.135 189.43 277.375C189.213 277.615 188.952 277.797 188.645 277.92C188.338 278.04 188.018 278.1 187.685 278.1C187.202 278.1 186.777 277.995 186.41 277.785C186.043 277.575 185.757 277.273 185.55 276.88C185.343 276.487 185.24 276.015 185.24 275.465C185.24 274.922 185.333 274.445 185.52 274.035C185.707 273.625 185.977 273.305 186.33 273.075C186.687 272.845 187.115 272.73 187.615 272.73C188.102 272.73 188.513 272.835 188.85 273.045C189.187 273.255 189.442 273.552 189.615 273.935C189.792 274.315 189.88 274.767 189.88 275.29V275.63H186.175ZM186.18 275.005H188.99C188.99 274.708 188.94 274.442 188.84 274.205C188.74 273.965 188.587 273.777 188.38 273.64C188.177 273.5 187.92 273.43 187.61 273.43C187.287 273.43 187.018 273.508 186.805 273.665C186.595 273.818 186.437 274.017 186.33 274.26C186.227 274.5 186.177 274.748 186.18 275.005ZM193.015 278.1C192.345 278.1 191.813 277.87 191.42 277.41C191.026 276.95 190.83 276.278 190.83 275.395C190.83 274.858 190.908 274.39 191.065 273.99C191.225 273.59 191.461 273.28 191.775 273.06C192.088 272.84 192.478 272.73 192.945 272.73C193.191 272.73 193.41 272.762 193.6 272.825C193.793 272.888 193.96 272.968 194.1 273.065C194.24 273.162 194.353 273.262 194.44 273.365C194.53 273.468 194.596 273.563 194.64 273.65V270.57H195.57V278H194.865L194.765 276.94C194.731 277.04 194.678 277.157 194.605 277.29C194.531 277.42 194.428 277.548 194.295 277.675C194.161 277.798 193.99 277.9 193.78 277.98C193.573 278.06 193.318 278.1 193.015 278.1ZM193.18 277.39C193.703 277.39 194.076 277.232 194.3 276.915C194.526 276.595 194.64 276.073 194.64 275.35C194.636 274.947 194.585 274.603 194.485 274.32C194.388 274.037 194.235 273.822 194.025 273.675C193.818 273.525 193.543 273.45 193.2 273.45C192.773 273.45 192.426 273.602 192.16 273.905C191.893 274.208 191.76 274.69 191.76 275.35C191.76 275.997 191.88 276.498 192.12 276.855C192.363 277.212 192.716 277.39 193.18 277.39ZM202.322 272.83V273.505H201.067V278H200.137V273.505H199.047V272.83H200.137V272.03C200.137 271.62 200.242 271.308 200.452 271.095C200.662 270.878 200.975 270.77 201.392 270.77H202.367L202.372 271.425H201.597C201.387 271.425 201.243 271.482 201.167 271.595C201.09 271.708 201.052 271.88 201.052 272.11V272.83H202.322ZM203.464 278V272.83H204.344V273.825C204.431 273.578 204.553 273.375 204.709 273.215C204.866 273.052 205.044 272.93 205.244 272.85C205.448 272.77 205.658 272.73 205.874 272.73C205.951 272.73 206.026 272.735 206.099 272.745C206.173 272.755 206.229 272.772 206.269 272.795V273.69C206.219 273.667 206.154 273.652 206.074 273.645C205.998 273.635 205.933 273.63 205.879 273.63C205.673 273.617 205.479 273.63 205.299 273.67C205.119 273.707 204.961 273.772 204.824 273.865C204.688 273.958 204.579 274.082 204.499 274.235C204.423 274.385 204.384 274.568 204.384 274.785V278H203.464ZM209.279 278.1C208.802 278.1 208.386 277.998 208.029 277.795C207.672 277.588 207.396 277.287 207.199 276.89C207.002 276.493 206.904 276.008 206.904 275.435C206.904 274.895 206.996 274.422 207.179 274.015C207.362 273.608 207.631 273.293 207.984 273.07C208.341 272.843 208.772 272.73 209.279 272.73C209.756 272.73 210.169 272.835 210.519 273.045C210.872 273.252 211.146 273.557 211.339 273.96C211.532 274.363 211.629 274.855 211.629 275.435C211.629 275.962 211.539 276.425 211.359 276.825C211.182 277.225 210.919 277.538 210.569 277.765C210.222 277.988 209.792 278.1 209.279 278.1ZM209.279 277.37C209.589 277.37 209.851 277.292 210.064 277.135C210.277 276.978 210.439 276.753 210.549 276.46C210.659 276.167 210.714 275.818 210.714 275.415C210.714 275.045 210.666 274.713 210.569 274.42C210.472 274.123 210.317 273.888 210.104 273.715C209.894 273.542 209.619 273.455 209.279 273.455C208.966 273.455 208.701 273.533 208.484 273.69C208.267 273.843 208.102 274.067 207.989 274.36C207.879 274.653 207.824 275.005 207.824 275.415C207.824 275.778 207.874 276.108 207.974 276.405C208.074 276.702 208.231 276.937 208.444 277.11C208.657 277.283 208.936 277.37 209.279 277.37ZM212.839 278V272.83H213.729V273.58C213.873 273.353 214.069 273.155 214.319 272.985C214.569 272.815 214.894 272.73 215.294 272.73C215.481 272.73 215.671 272.762 215.864 272.825C216.061 272.888 216.241 272.983 216.404 273.11C216.568 273.237 216.694 273.392 216.784 273.575C216.944 273.322 217.161 273.118 217.434 272.965C217.708 272.808 218.016 272.73 218.359 272.73C218.539 272.73 218.728 272.758 218.924 272.815C219.121 272.868 219.303 272.965 219.469 273.105C219.639 273.242 219.778 273.433 219.884 273.68C219.991 273.923 220.044 274.237 220.044 274.62V278H219.114V274.71C219.114 274.397 219.064 274.155 218.964 273.985C218.864 273.812 218.733 273.69 218.569 273.62C218.409 273.55 218.238 273.515 218.054 273.515C217.894 273.515 217.724 273.547 217.544 273.61C217.364 273.673 217.211 273.78 217.084 273.93C216.958 274.08 216.894 274.285 216.894 274.545V278H215.974V274.44C215.974 274.237 215.919 274.067 215.809 273.93C215.703 273.793 215.568 273.69 215.404 273.62C215.244 273.55 215.084 273.515 214.924 273.515C214.748 273.515 214.569 273.55 214.389 273.62C214.213 273.69 214.063 273.802 213.939 273.955C213.819 274.105 213.759 274.302 213.759 274.545V278H212.839ZM224.238 279.65C223.935 279.65 223.726 279.628 223.613 279.585C223.5 279.542 223.443 279.52 223.443 279.52V278.92L223.968 278.93C224.161 278.937 224.321 278.923 224.448 278.89C224.575 278.857 224.676 278.812 224.753 278.755C224.83 278.698 224.888 278.635 224.928 278.565C224.971 278.495 225.006 278.428 225.033 278.365L225.213 277.875L223.193 272.83H224.128L225.653 276.82L227.168 272.83H228.073L225.893 278.39C225.76 278.717 225.61 278.972 225.443 279.155C225.28 279.338 225.096 279.467 224.893 279.54C224.693 279.613 224.475 279.65 224.238 279.65ZM230.929 278.1C230.453 278.1 230.036 277.998 229.679 277.795C229.323 277.588 229.046 277.287 228.849 276.89C228.653 276.493 228.554 276.008 228.554 275.435C228.554 274.895 228.646 274.422 228.829 274.015C229.013 273.608 229.281 273.293 229.634 273.07C229.991 272.843 230.423 272.73 230.929 272.73C231.406 272.73 231.819 272.835 232.169 273.045C232.523 273.252 232.796 273.557 232.989 273.96C233.183 274.363 233.279 274.855 233.279 275.435C233.279 275.962 233.189 276.425 233.009 276.825C232.833 277.225 232.569 277.538 232.219 277.765C231.873 277.988 231.443 278.1 230.929 278.1ZM230.929 277.37C231.239 277.37 231.501 277.292 231.714 277.135C231.928 276.978 232.089 276.753 232.199 276.46C232.309 276.167 232.364 275.818 232.364 275.415C232.364 275.045 232.316 274.713 232.219 274.42C232.123 274.123 231.968 273.888 231.754 273.715C231.544 273.542 231.269 273.455 230.929 273.455C230.616 273.455 230.351 273.533 230.134 273.69C229.918 273.843 229.753 274.067 229.639 274.36C229.529 274.653 229.474 275.005 229.474 275.415C229.474 275.778 229.524 276.108 229.624 276.405C229.724 276.702 229.881 276.937 230.094 277.11C230.308 277.283 230.586 277.37 230.929 277.37ZM236.302 278.1C236.032 278.097 235.777 278.058 235.537 277.985C235.3 277.908 235.09 277.797 234.907 277.65C234.723 277.503 234.578 277.322 234.472 277.105C234.368 276.885 234.317 276.63 234.317 276.34V272.83H235.242V276.245C235.242 276.582 235.345 276.855 235.552 277.065C235.762 277.275 236.077 277.38 236.497 277.38C236.877 277.38 237.182 277.282 237.412 277.085C237.645 276.885 237.762 276.588 237.762 276.195V272.83H238.682V278H237.947L237.852 277.01C237.788 277.27 237.68 277.48 237.527 277.64C237.377 277.8 237.195 277.918 236.982 277.995C236.772 278.068 236.545 278.103 236.302 278.1ZM240.193 278V272.83H241.073V273.825C241.159 273.578 241.281 273.375 241.438 273.215C241.594 273.052 241.773 272.93 241.973 272.85C242.176 272.77 242.386 272.73 242.603 272.73C242.679 272.73 242.754 272.735 242.828 272.745C242.901 272.755 242.958 272.772 242.998 272.795V273.69C242.948 273.667 242.883 273.652 242.803 273.645C242.726 273.635 242.661 273.63 242.608 273.63C242.401 273.617 242.208 273.63 242.028 273.67C241.848 273.707 241.689 273.772 241.553 273.865C241.416 273.958 241.308 274.082 241.228 274.235C241.151 274.385 241.113 274.568 241.113 274.785V278H240.193ZM93.195 292.1C92.8617 292.1 92.5667 292.042 92.31 291.925C92.0533 291.805 91.8517 291.633 91.705 291.41C91.5617 291.187 91.49 290.917 91.49 290.6C91.49 290.027 91.69 289.6 92.09 289.32C92.49 289.04 93.1317 288.89 94.015 288.87L94.94 288.845V288.44C94.94 288.123 94.845 287.873 94.655 287.69C94.465 287.503 94.17 287.41 93.77 287.41C93.4733 287.413 93.2117 287.483 92.985 287.62C92.7617 287.757 92.6167 287.98 92.55 288.29H91.735C91.755 287.953 91.85 287.67 92.02 287.44C92.19 287.207 92.4267 287.03 92.73 286.91C93.0367 286.79 93.3983 286.73 93.815 286.73C94.265 286.73 94.6383 286.793 94.935 286.92C95.235 287.047 95.4583 287.233 95.605 287.48C95.755 287.727 95.83 288.03 95.83 288.39V292H95.04L94.975 291.03C94.775 291.433 94.52 291.713 94.21 291.87C93.9033 292.023 93.565 292.1 93.195 292.1ZM93.475 291.435C93.6483 291.435 93.82 291.403 93.99 291.34C94.1633 291.277 94.3217 291.192 94.465 291.085C94.6083 290.975 94.7217 290.853 94.805 290.72C94.8917 290.583 94.9367 290.443 94.94 290.3V289.415L94.17 289.43C93.7767 289.437 93.4467 289.477 93.18 289.55C92.9167 289.623 92.7183 289.738 92.585 289.895C92.455 290.052 92.39 290.257 92.39 290.51C92.39 290.8 92.49 291.027 92.69 291.19C92.8933 291.353 93.155 291.435 93.475 291.435ZM99.4695 286.73C99.8395 286.73 100.173 286.802 100.47 286.945C100.766 287.085 101.008 287.285 101.195 287.545C101.385 287.805 101.503 288.112 101.55 288.465H100.73C100.7 288.285 100.63 288.12 100.52 287.97C100.413 287.82 100.271 287.7 100.095 287.61C99.9179 287.52 99.7112 287.475 99.4745 287.475C99.0312 287.475 98.6712 287.635 98.3945 287.955C98.1179 288.275 97.9795 288.765 97.9795 289.425C97.9795 290.022 98.1062 290.5 98.3595 290.86C98.6162 291.217 98.9929 291.395 99.4895 291.395C99.7262 291.395 99.9312 291.35 100.105 291.26C100.281 291.167 100.423 291.045 100.53 290.895C100.636 290.742 100.705 290.578 100.735 290.405H101.54C101.496 290.752 101.38 291.052 101.19 291.305C101 291.558 100.756 291.755 100.46 291.895C100.166 292.032 99.8362 292.1 99.4695 292.1C99.0062 292.1 98.5945 291.998 98.2345 291.795C97.8779 291.592 97.5979 291.292 97.3945 290.895C97.1912 290.498 97.0895 290.012 97.0895 289.435C97.0895 288.895 97.1812 288.423 97.3645 288.02C97.5512 287.613 97.8212 287.297 98.1745 287.07C98.5312 286.843 98.9629 286.73 99.4695 286.73ZM104.86 286.73C105.23 286.73 105.563 286.802 105.86 286.945C106.157 287.085 106.398 287.285 106.585 287.545C106.775 287.805 106.893 288.112 106.94 288.465H106.12C106.09 288.285 106.02 288.12 105.91 287.97C105.803 287.82 105.662 287.7 105.485 287.61C105.308 287.52 105.102 287.475 104.865 287.475C104.422 287.475 104.062 287.635 103.785 287.955C103.508 288.275 103.37 288.765 103.37 289.425C103.37 290.022 103.497 290.5 103.75 290.86C104.007 291.217 104.383 291.395 104.88 291.395C105.117 291.395 105.322 291.35 105.495 291.26C105.672 291.167 105.813 291.045 105.92 290.895C106.027 290.742 106.095 290.578 106.125 290.405H106.93C106.887 290.752 106.77 291.052 106.58 291.305C106.39 291.558 106.147 291.755 105.85 291.895C105.557 292.032 105.227 292.1 104.86 292.1C104.397 292.1 103.985 291.998 103.625 291.795C103.268 291.592 102.988 291.292 102.785 290.895C102.582 290.498 102.48 290.012 102.48 289.435C102.48 288.895 102.572 288.423 102.755 288.02C102.942 287.613 103.212 287.297 103.565 287.07C103.922 286.843 104.353 286.73 104.86 286.73ZM110.246 292.1C109.769 292.1 109.352 291.998 108.996 291.795C108.639 291.588 108.362 291.287 108.166 290.89C107.969 290.493 107.871 290.008 107.871 289.435C107.871 288.895 107.962 288.422 108.146 288.015C108.329 287.608 108.597 287.293 108.951 287.07C109.307 286.843 109.739 286.73 110.246 286.73C110.722 286.73 111.136 286.835 111.486 287.045C111.839 287.252 112.112 287.557 112.306 287.96C112.499 288.363 112.596 288.855 112.596 289.435C112.596 289.962 112.506 290.425 112.326 290.825C112.149 291.225 111.886 291.538 111.536 291.765C111.189 291.988 110.759 292.1 110.246 292.1ZM110.246 291.37C110.556 291.37 110.817 291.292 111.031 291.135C111.244 290.978 111.406 290.753 111.516 290.46C111.626 290.167 111.681 289.818 111.681 289.415C111.681 289.045 111.632 288.713 111.536 288.42C111.439 288.123 111.284 287.888 111.071 287.715C110.861 287.542 110.586 287.455 110.246 287.455C109.932 287.455 109.667 287.533 109.451 287.69C109.234 287.843 109.069 288.067 108.956 288.36C108.846 288.653 108.791 289.005 108.791 289.415C108.791 289.778 108.841 290.108 108.941 290.405C109.041 290.702 109.197 290.937 109.411 291.11C109.624 291.283 109.902 291.37 110.246 291.37ZM115.618 292.1C115.348 292.097 115.093 292.058 114.853 291.985C114.616 291.908 114.406 291.797 114.223 291.65C114.04 291.503 113.895 291.322 113.788 291.105C113.685 290.885 113.633 290.63 113.633 290.34V286.83H114.558V290.245C114.558 290.582 114.661 290.855 114.868 291.065C115.078 291.275 115.393 291.38 115.813 291.38C116.193 291.38 116.498 291.282 116.728 291.085C116.961 290.885 117.078 290.588 117.078 290.195V286.83H117.998V292H117.263L117.168 291.01C117.105 291.27 116.996 291.48 116.843 291.64C116.693 291.8 116.511 291.918 116.298 291.995C116.088 292.068 115.861 292.103 115.618 292.1ZM119.509 292V286.83H120.404V287.58C120.487 287.437 120.602 287.302 120.749 287.175C120.899 287.048 121.079 286.947 121.289 286.87C121.502 286.793 121.747 286.755 122.024 286.755C122.351 286.755 122.651 286.82 122.924 286.95C123.201 287.08 123.421 287.283 123.584 287.56C123.751 287.833 123.834 288.187 123.834 288.62V292H122.909V288.71C122.909 288.307 122.802 288.008 122.589 287.815C122.379 287.618 122.106 287.52 121.769 287.52C121.536 287.52 121.317 287.558 121.114 287.635C120.911 287.708 120.746 287.822 120.619 287.975C120.492 288.125 120.429 288.315 120.429 288.545V292H119.509ZM127.663 287.505H126.498V290.72C126.498 290.903 126.516 291.038 126.553 291.125C126.593 291.208 126.658 291.262 126.748 291.285C126.841 291.308 126.968 291.32 127.128 291.32H127.693V291.94C127.63 291.963 127.533 291.983 127.403 292C127.276 292.017 127.118 292.025 126.928 292.025C126.571 292.025 126.295 291.977 126.098 291.88C125.901 291.783 125.763 291.64 125.683 291.45C125.606 291.26 125.568 291.027 125.568 290.75V287.505H124.728V286.83H125.593L125.818 285.325H126.498V286.825H127.663V287.505ZM132.296 286.83V292H131.401V286.83H132.296ZM132.316 284.775V285.735H131.371V284.775H132.316ZM135.758 292.1C135.398 292.1 135.063 292.045 134.753 291.935C134.447 291.822 134.192 291.647 133.988 291.41C133.785 291.17 133.657 290.865 133.603 290.495H134.443C134.49 290.698 134.573 290.868 134.693 291.005C134.817 291.138 134.97 291.24 135.153 291.31C135.337 291.377 135.537 291.41 135.753 291.41C136.1 291.41 136.38 291.345 136.593 291.215C136.807 291.085 136.913 290.885 136.913 290.615C136.913 290.425 136.857 290.273 136.743 290.16C136.633 290.043 136.462 289.958 136.228 289.905L135.158 289.64C134.742 289.54 134.408 289.383 134.158 289.17C133.908 288.957 133.783 288.658 133.783 288.275C133.78 287.972 133.852 287.705 133.998 287.475C134.145 287.245 134.365 287.063 134.658 286.93C134.952 286.797 135.317 286.73 135.753 286.73C136.313 286.73 136.765 286.857 137.108 287.11C137.455 287.36 137.635 287.728 137.648 288.215H136.833C136.8 287.968 136.688 287.773 136.498 287.63C136.312 287.483 136.06 287.41 135.743 287.41C135.413 287.41 135.145 287.477 134.938 287.61C134.732 287.74 134.628 287.943 134.628 288.22C134.628 288.403 134.702 288.548 134.848 288.655C134.995 288.758 135.212 288.845 135.498 288.915L136.533 289.175C136.773 289.238 136.97 289.322 137.123 289.425C137.28 289.528 137.403 289.643 137.493 289.77C137.587 289.897 137.652 290.03 137.688 290.17C137.728 290.307 137.748 290.438 137.748 290.565C137.748 290.882 137.668 291.155 137.508 291.385C137.352 291.612 137.125 291.788 136.828 291.915C136.535 292.038 136.178 292.1 135.758 292.1ZM146.99 289.245C146.99 289.828 146.895 290.335 146.705 290.765C146.515 291.192 146.206 291.522 145.78 291.755C145.356 291.985 144.795 292.1 144.095 292.1C143.391 292.1 142.828 291.983 142.405 291.75C141.981 291.513 141.675 291.178 141.485 290.745C141.298 290.312 141.205 289.795 141.205 289.195V284.77H142.69V289.305C142.69 289.845 142.82 290.24 143.08 290.49C143.34 290.737 143.678 290.86 144.095 290.86C144.371 290.86 144.616 290.807 144.83 290.7C145.043 290.59 145.21 290.422 145.33 290.195C145.453 289.965 145.515 289.668 145.515 289.305V284.77H146.99V289.245ZM151.156 292.1C150.799 292.1 150.449 292.055 150.106 291.965C149.763 291.875 149.449 291.74 149.166 291.56C148.883 291.38 148.648 291.155 148.461 290.885C148.278 290.615 148.168 290.298 148.131 289.935H149.626C149.676 290.155 149.771 290.34 149.911 290.49C150.051 290.64 150.228 290.755 150.441 290.835C150.654 290.915 150.891 290.955 151.151 290.955C151.418 290.955 151.661 290.922 151.881 290.855C152.101 290.788 152.278 290.688 152.411 290.555C152.544 290.418 152.611 290.248 152.611 290.045C152.611 289.862 152.556 289.712 152.446 289.595C152.339 289.478 152.194 289.383 152.011 289.31C151.828 289.237 151.619 289.177 151.386 289.13L150.136 288.875C149.589 288.772 149.156 288.555 148.836 288.225C148.516 287.892 148.351 287.448 148.341 286.895C148.338 286.442 148.458 286.05 148.701 285.72C148.948 285.387 149.281 285.13 149.701 284.95C150.124 284.77 150.598 284.68 151.121 284.68C151.744 284.68 152.268 284.778 152.691 284.975C153.118 285.168 153.441 285.432 153.661 285.765C153.884 286.095 153.999 286.463 154.006 286.87H152.541C152.514 286.617 152.438 286.415 152.311 286.265C152.184 286.115 152.021 286.007 151.821 285.94C151.624 285.873 151.399 285.84 151.146 285.84C150.953 285.84 150.776 285.862 150.616 285.905C150.459 285.948 150.326 286.01 150.216 286.09C150.106 286.167 150.021 286.258 149.961 286.365C149.901 286.472 149.871 286.592 149.871 286.725C149.871 286.935 149.941 287.105 150.081 287.235C150.221 287.365 150.483 287.472 150.866 287.555L152.106 287.81C152.549 287.897 152.901 288.025 153.161 288.195C153.424 288.365 153.621 288.557 153.751 288.77C153.884 288.983 153.971 289.202 154.011 289.425C154.054 289.645 154.076 289.848 154.076 290.035C154.076 290.425 153.953 290.777 153.706 291.09C153.463 291.4 153.123 291.647 152.686 291.83C152.249 292.01 151.739 292.1 151.156 292.1ZM160.219 292.1C159.352 292.1 158.649 291.927 158.109 291.58C157.569 291.23 157.259 290.692 157.179 289.965L158.699 289.935C158.779 290.265 158.95 290.517 159.214 290.69C159.48 290.86 159.814 290.945 160.214 290.945C160.454 290.945 160.665 290.907 160.849 290.83C161.035 290.75 161.182 290.643 161.289 290.51C161.395 290.373 161.449 290.218 161.449 290.045C161.449 289.778 161.364 289.58 161.194 289.45C161.024 289.317 160.762 289.21 160.409 289.13L159.224 288.875C158.674 288.765 158.232 288.547 157.899 288.22C157.569 287.89 157.4 287.448 157.394 286.895C157.39 286.442 157.512 286.05 157.759 285.72C158.009 285.387 158.347 285.13 158.774 284.95C159.204 284.77 159.685 284.68 160.219 284.68C160.765 284.68 161.237 284.778 161.634 284.975C162.034 285.168 162.34 285.43 162.554 285.76C162.77 286.087 162.875 286.448 162.869 286.845L161.394 286.87C161.347 286.55 161.24 286.298 161.074 286.115C160.907 285.932 160.63 285.84 160.244 285.84C160.044 285.84 159.865 285.862 159.709 285.905C159.552 285.948 159.417 286.01 159.304 286.09C159.19 286.167 159.104 286.258 159.044 286.365C158.987 286.472 158.959 286.592 158.959 286.725C158.959 286.935 159.029 287.102 159.169 287.225C159.312 287.345 159.58 287.457 159.974 287.56L161.139 287.845C161.795 288.002 162.269 288.27 162.559 288.65C162.852 289.03 162.999 289.492 162.999 290.035C162.999 290.452 162.884 290.815 162.654 291.125C162.427 291.435 162.105 291.675 161.689 291.845C161.272 292.015 160.782 292.1 160.219 292.1ZM159.594 283.735H160.859V285.035H159.594V283.735ZM159.569 291.655H160.829V292.955H159.569V291.655ZM165.21 292V286.585H163.92V285.76C164.334 285.76 164.667 285.722 164.92 285.645C165.177 285.565 165.369 285.452 165.495 285.305C165.622 285.155 165.697 284.977 165.72 284.77H166.69V292H165.21ZM170.998 284.67C171.858 284.67 172.536 284.992 173.033 285.635C173.529 286.275 173.778 287.197 173.778 288.4C173.778 289.597 173.533 290.515 173.043 291.155C172.553 291.792 171.871 292.11 170.998 292.11C170.121 292.11 169.436 291.792 168.943 291.155C168.453 290.518 168.208 289.602 168.208 288.405C168.208 287.605 168.321 286.927 168.548 286.37C168.774 285.813 169.096 285.392 169.513 285.105C169.929 284.815 170.424 284.67 170.998 284.67ZM170.998 290.915C171.428 290.915 171.743 290.723 171.943 290.34C172.143 289.953 172.243 289.308 172.243 288.405C172.243 287.482 172.141 286.82 171.938 286.42C171.734 286.02 171.419 285.82 170.993 285.82C170.566 285.82 170.248 286.022 170.038 286.425C169.831 286.828 169.728 287.488 169.728 288.405C169.728 289.305 169.831 289.948 170.038 290.335C170.244 290.722 170.564 290.915 170.998 290.915ZM177.899 284.77H179.334V289.175H180.449V290.4H179.334V292H177.929L177.934 290.4H174.604V289.2L177.899 284.77ZM175.954 289.175H177.934V286.525L175.954 289.175ZM181.231 292V290.41H182.831V292H181.231ZM186.527 292.11C186.077 292.11 185.657 292.023 185.267 291.85C184.877 291.677 184.558 291.433 184.312 291.12C184.065 290.803 183.927 290.433 183.897 290.01H185.287C185.347 290.29 185.48 290.518 185.687 290.695C185.893 290.868 186.153 290.955 186.467 290.955C186.813 290.955 187.117 290.873 187.377 290.71C187.64 290.547 187.837 290.287 187.967 289.93C188.1 289.573 188.147 289.107 188.107 288.53C188.013 288.707 187.883 288.862 187.717 288.995C187.553 289.125 187.362 289.227 187.142 289.3C186.922 289.37 186.677 289.405 186.407 289.405C185.917 289.405 185.482 289.313 185.102 289.13C184.725 288.943 184.428 288.68 184.212 288.34C183.998 287.997 183.892 287.59 183.892 287.12C183.892 286.647 184.005 286.225 184.232 285.855C184.458 285.485 184.775 285.195 185.182 284.985C185.588 284.775 186.065 284.67 186.612 284.67C187.225 284.67 187.753 284.817 188.197 285.11C188.643 285.4 188.985 285.813 189.222 286.35C189.462 286.883 189.582 287.512 189.582 288.235C189.582 289.098 189.458 289.818 189.212 290.395C188.968 290.968 188.618 291.398 188.162 291.685C187.705 291.968 187.16 292.11 186.527 292.11ZM186.657 288.245C186.86 288.245 187.057 288.2 187.247 288.11C187.44 288.017 187.598 287.9 187.722 287.76C187.845 287.62 187.907 287.475 187.907 287.325C187.91 287.002 187.858 286.725 187.752 286.495C187.648 286.262 187.502 286.083 187.312 285.96C187.125 285.837 186.907 285.775 186.657 285.775C186.427 285.775 186.222 285.828 186.042 285.935C185.862 286.042 185.72 286.192 185.617 286.385C185.513 286.578 185.462 286.802 185.462 287.055C185.462 287.432 185.572 287.725 185.792 287.935C186.012 288.142 186.3 288.245 186.657 288.245ZM193.224 284.67C194.084 284.67 194.762 284.992 195.259 285.635C195.756 286.275 196.004 287.197 196.004 288.4C196.004 289.597 195.759 290.515 195.269 291.155C194.779 291.792 194.097 292.11 193.224 292.11C192.347 292.11 191.662 291.792 191.169 291.155C190.679 290.518 190.434 289.602 190.434 288.405C190.434 287.605 190.547 286.927 190.774 286.37C191.001 285.813 191.322 285.392 191.739 285.105C192.156 284.815 192.651 284.67 193.224 284.67ZM193.224 290.915C193.654 290.915 193.969 290.723 194.169 290.34C194.369 289.953 194.469 289.308 194.469 288.405C194.469 287.482 194.367 286.82 194.164 286.42C193.961 286.02 193.646 285.82 193.219 285.82C192.792 285.82 192.474 286.022 192.264 286.425C192.057 286.828 191.954 287.488 191.954 288.405C191.954 289.305 192.057 289.948 192.264 290.335C192.471 290.722 192.791 290.915 193.224 290.915ZM196.989 292V290.82H198.089V292H196.989Z" fill="#36536B"/>
</g>
<defs>
<filter id="filter0_d_2908_6" x="0.567871" y="0.569458" width="417.649" height="658.861" filterUnits="userSpaceOnUse" color-interpolation-filters="sRGB">
<feFlood flood-opacity="0" result="BackgroundImageFix"/>
<feColorMatrix in="SourceAlpha" type="matrix" values="0 0 0 0 0 0 0 0 0 0 0 0 0 0 0 0 0 0 127 0" result="hardAlpha"/>
<feOffset dx="25" dy="25"/>
<feGaussianBlur stdDeviation="40"/>
<feColorMatrix type="matrix" values="0 0 0 0 0.212302 0 0 0 0 0.32521 0 0 0 0 0.419299 0 0 0 0.300727 0"/>
<feBlend mode="normal" in2="BackgroundImageFix" result="effect1_dropShadow_2908_6"/>
<feBlend mode="normal" in="SourceGraphic" in2="effect1_dropShadow_2908_6" result="shape"/>
</filter>
<filter id="filter1_d_2908_6" x="70" y="217" width="248" height="117" filterUnits="userSpaceOnUse" color-interpolation-filters="sRGB">
<feFlood flood-opacity="0" result="BackgroundImageFix"/>
<feColorMatrix in="SourceAlpha" type="matrix" values="0 0 0 0 0 0 0 0 0 0 0 0 0 0 0 0 0 0 127 0" result="hardAlpha"/>
<feMorphology radius="10" operator="erode" in="SourceAlpha" result="effect1_dropShadow_2908_6"/>
<feOffset dx="10" dy="10"/>
<feGaussianBlur stdDeviation="12.5"/>
<feColorMatrix type="matrix" values="0 0 0 0 0.212302 0 0 0 0 0.32521 0 0 0 0 0.419299 0 0 0 0.25 0"/>
<feBlend mode="normal" in2="BackgroundImageFix" result="effect1_dropShadow_2908_6"/>
<feBlend mode="normal" in="SourceGraphic" in2="effect1_dropShadow_2908_6" result="shape"/>
</filter>
<linearGradient id="paint0_linear_2908_6" x1="63.0146" y1="55" x2="63.0146" y2="67.3239" gradientUnits="userSpaceOnUse">
<stop stop-color="#454545"/>
<stop offset="0.226279" stop-color="#999999"/>
<stop offset="1" stop-color="white"/>
</linearGradient>
<linearGradient id="paint1_linear_2908_6" x1="313.103" y1="140.747" x2="303.642" y2="140.747" gradientUnits="userSpaceOnUse">
<stop stop-color="white" stop-opacity="0.01"/>
<stop offset="0.222178" stop-color="#BABABA"/>
<stop offset="0.54678" stop-color="white" stop-opacity="0.01"/>
<stop offset="1" stop-color="white" stop-opacity="0.01"/>
</linearGradient>
<linearGradient id="paint2_linear_2908_6" x1="55.568" y1="140.487" x2="65.044" y2="140.487" gradientUnits="userSpaceOnUse">
<stop stop-color="white" stop-opacity="0.01"/>
<stop offset="0.222178" stop-color="#BABABA"/>
<stop offset="0.54678" stop-color="white" stop-opacity="0.01"/>
<stop offset="1" stop-color="white" stop-opacity="0.01"/>
</linearGradient>
<linearGradient id="paint3_linear_2908_6" x1="68.907" y1="67.4445" x2="68.907" y2="528.824" gradientUnits="userSpaceOnUse">
<stop stop-color="#9CB6CD"/>
<stop offset="0.420564" stop-color="#9AB3CA"/>
<stop offset="0.716592" stop-color="#557496"/>
<stop offset="1" stop-color="#475178"/>
</linearGradient>
<clipPath id="clip0_2908_6">
<rect width="233" height="465" fill="white" transform="translate(68.0742 67.4445)"/>
</clipPath>
<clipPath id="clip1_2908_6">
<rect width="218" height="87" fill="white" transform="translate(75 222)"/>
</clipPath>
<clipPath id="clip2_2908_6">
<rect width="187" height="11" fill="white" transform="translate(91 238)"/>
</clipPath>
</defs>
</svg>
